<svg width="24" height="24" viewBox="0 0 24 24" xmlns="http://www.w3.org/2000/svg" xmlns:xlink="http://www.w3.org/1999/xlink">
  <path d="M12 2c5.514 0 10 4.486 10 10s-4.486 10-10 10S2 17.543 2 12 6.486 2 12 2zm0 1.886c-4.486 0-8.143 3.628-8.143 8.114 0 4.486 3.657 8.143 8.143 8.143 4.486 0 8.143-3.643 8.143-8.143 0-4.5-3.657-8.129-8.143-8.129v.015zm1.429 8.128a1.555 1.555 0 0 0-.443-.985c-.286-.272-.6-.429-.986-.443h-1.429c-.385.028-.685.185-.985.443a1.457 1.457 0 0 0-.443.985h1.428V16.3c.029.386.158.714.443.986.286.285.6.443.986.443h1.429c.385 0 .685-.158.985-.443.286-.272.429-.6.443-.986H13.43V12v.014zM11 8.73a1.345 1.345 0 0 1-.4-1c0-.4.129-.743.4-1 .271-.258.6-.4 1-.4s.743.128 1 .4c.257.271.4.6.4 1s-.129.742-.4 1a1.433 1.433 0 0 1-1 .428c-.4 0-.743-.157-1-.428z" fill="currentColor"/>
</svg>
