<svg width="24" height="24" viewBox="0 0 24 24" xmlns="http://www.w3.org/2000/svg" xmlns:xlink="http://www.w3.org/1999/xlink">
  <path d="M20.074 10.015l-2.295 2.294a3.063 3.063 0 0 1-2.25.926c-.897 0-1.661-.323-2.294-.97l-.97.97c.647.633.97 1.401.97 2.305 0 .883-.305 1.63-.915 2.24l-2.272 2.282c-.61.626-1.36.938-2.25.938-.883 0-1.629-.305-2.24-.915l-1.62-1.61C3.312 17.863 3 17.117 3 16.234c0-.882.309-1.632.926-2.25l2.295-2.294a3.063 3.063 0 0 1 2.25-.926c.897 0 1.661.323 2.294.97l.97-.97a3.102 3.102 0 0 1-.97-2.305c0-.883.305-1.63.915-2.24l2.272-2.282c.61-.626 1.36-.938 2.25-.938.883 0 1.629.305 2.24.915l1.62 1.61c.626.611.938 1.357.938 2.24 0 .882-.309 1.632-.926 2.25m-9.437 4.83l-.204.21a6.818 6.818 0 0 1-.237.238 2.62 2.62 0 0 1-.209.166.884.884 0 0 1-.583.182c-.294 0-.543-.103-.749-.31a1.025 1.025 0 0 1-.308-.75.89.89 0 0 1 .182-.586 2.482 2.482 0 0 1 .401-.448l.21-.204A1.062 1.062 0 0 0 8.346 13c-.301 0-.55.1-.749.298l-2.29 2.299a1.025 1.025 0 0 0-.308.751c0 .287.103.534.308.74l1.619 1.614c.212.199.462.298.748.298.294 0 .543-.103.749-.31l2.268-2.287c.205-.206.308-.456.308-.751 0-.31-.121-.578-.363-.807m8.055-7.944l-1.619-1.614A1.058 1.058 0 0 0 16.325 5c-.301 0-.55.1-.749.298l-2.268 2.288a1.025 1.025 0 0 0-.308.751c0 .31.121.578.363.807l.204-.21c.114-.118.193-.197.237-.238a2.62 2.62 0 0 1 .209-.166.884.884 0 0 1 .583-.182c.294 0 .543.103.749.31.205.206.308.456.308.75a.89.89 0 0 1-.182.586 2.482 2.482 0 0 1-.401.448l-.21.204c.22.236.485.354.793.354.294 0 .543-.103.749-.31l2.29-2.298c.205-.206.308-.456.308-.751 0-.287-.103-.534-.308-.74" fill="currentColor"/>
</svg>
