<svg width="24" height="24" viewBox="0 0 24 24" fill="none" xmlns="http://www.w3.org/2000/svg">
<path fill-rule="evenodd" clip-rule="evenodd" d="M2 12C2 9.06902 3.26307 6.43124 5.27423 4.60165L6.62151 6.08366C5.01204 7.54821 4 9.65852 4 12C4 14.465 5.12162 16.6738 6.88113 18.1426L5.59894 19.6813C3.39995 17.8464 2 15.0857 2 12ZM18.7258 4.60165L17.3785 6.08366C18.988 7.54821 20 9.65852 20 12C20 14.465 18.8784 16.6738 17.1189 18.1426L18.4011 19.6813C20.6001 17.8464 22 15.0857 22 12C22 9.06902 20.7369 6.43124 18.7258 4.60165ZM6 12C6 10.2414 6.75784 8.65875 7.96454 7.56099L9.31075 9.04183C8.50602 9.7741 8 10.8293 8 12C8 13.2325 8.56081 14.3369 9.44056 15.0713L8.15936 16.6088C6.83997 15.5079 6 13.8514 6 12ZM16.0355 7.56099L14.6892 9.04183C15.494 9.7741 16 10.8293 16 12C16 13.2325 15.4392 14.3369 14.5594 15.0713L15.8406 16.6088C17.16 15.5079 18 13.8514 18 12C18 10.2414 17.2422 8.65875 16.0355 7.56099ZM10 12C10 13.1025 10.8975 14 12 14C13.1025 14 14 13.1025 14 12C14 10.8975 13.1025 10 12 10C10.8975 10 10 10.8975 10 12Z" fill="black"/>
</svg>
