<svg width="24" height="24" viewBox="0 0 24 24" xmlns="http://www.w3.org/2000/svg" xmlns:xlink="http://www.w3.org/1999/xlink">
  <path d="M14.429 19.143h1.428v-1.429H14.43v1.429zm-2.858 0H13v-1.429h-1.429v1.429zm-2.857 0h1.429v-1.429H8.714v1.429zm-2.857 0h1.429v-1.429H5.857v1.429zm11.429-2.857h1.428v-1.429h-1.428v1.429zm-2.857 0h1.428v-1.429H14.43v1.429zm-2.858 0H13v-1.429h-1.429v1.429zm-2.857 0h1.429v-1.429H8.714v1.429zm-2.857 0h1.429v-1.429H5.857v1.429zm11.429-2.857h1.428V12h-1.428v1.429zm-2.857 0h1.428V12H14.43v1.429zm-2.858 0H13V12h-1.429v1.429zm-2.857 0h1.429V12H8.714v1.429zm-2.857 0h1.429V12H5.857v1.429zm11.429-2.858h1.428V9.143h-1.428v1.428zm-2.857 0h1.428V9.143H14.43v1.428zm-2.858 0H13V9.143h-1.429v1.428zm-2.857 0h1.429V9.143H8.714v1.428zm7.143-5.714h1.429V2h-1.429v2.857zm-8.571 0h1.428V2H7.286v2.857zM4.429 20.571h15.714V7.714H4.429v12.857zM20.143 3.43h-1.429v2.14c0 .4-.314.715-.714.715h-2.857a.707.707 0 0 1-.714-.715V3.43h-4.286v2.14c0 .4-.314.715-.714.715H6.57a.707.707 0 0 1-.714-.715V3.43H4.43A1.43 1.43 0 0 0 3 4.857v15.714C3 21.357 3.643 22 4.429 22h15.714c.786 0 1.428-.643 1.428-1.429V4.857c0-.786-.642-1.428-1.428-1.428z" fill-rule="evenodd" fill="currentColor"/>
</svg>
