<svg width="24" height="24" viewBox="0 0 24 24" fill="none" xmlns="http://www.w3.org/2000/svg">
<path fill-rule="evenodd" clip-rule="evenodd" d="M16 5H17V2H16V5ZM7 5H8V2H7V5ZM4 19C4 19.5 4.5 20 5 20H19C19.5804 19.9807 20 19.5 20 19V7H4V19ZM18 3V6H15V3H9V6H6V3H5C4 3 3 4 3 5V19C3 20 4 21 5 21H19C20 21 21 20 21 19V5C21 4 20 3 19 3H18Z" fill="black"/>
<path fill-rule="evenodd" clip-rule="evenodd" d="M14 19H16V17H14V19Z" fill="black"/>
<path fill-rule="evenodd" clip-rule="evenodd" d="M11 19H13V17H11V19Z" fill="black"/>
<path fill-rule="evenodd" clip-rule="evenodd" d="M8 19H10V17H8V19Z" fill="black"/>
<path fill-rule="evenodd" clip-rule="evenodd" d="M5 19H7V17H5V19Z" fill="black"/>
<path fill-rule="evenodd" clip-rule="evenodd" d="M17 16H19V14H17V16Z" fill="black"/>
<path fill-rule="evenodd" clip-rule="evenodd" d="M14 16H16V14H14V16Z" fill="black"/>
<path fill-rule="evenodd" clip-rule="evenodd" d="M11 16H13V14H11V16Z" fill="black"/>
<path fill-rule="evenodd" clip-rule="evenodd" d="M8 16H10V14H8V16Z" fill="black"/>
<path fill-rule="evenodd" clip-rule="evenodd" d="M5 16H7V14H5V16Z" fill="black"/>
<path fill-rule="evenodd" clip-rule="evenodd" d="M17 13H19V11H17V13Z" fill="black"/>
<path fill-rule="evenodd" clip-rule="evenodd" d="M14 13H16V11H14V13Z" fill="black"/>
<path fill-rule="evenodd" clip-rule="evenodd" d="M11 13H13V11H11V13Z" fill="black"/>
<path fill-rule="evenodd" clip-rule="evenodd" d="M8 13H10V11H8V13Z" fill="black"/>
<path fill-rule="evenodd" clip-rule="evenodd" d="M5 13H7V11H5V13Z" fill="black"/>
<path fill-rule="evenodd" clip-rule="evenodd" d="M17 10H19V8H17V10Z" fill="black"/>
<path fill-rule="evenodd" clip-rule="evenodd" d="M14 10H16V8H14V10Z" fill="black"/>
<path fill-rule="evenodd" clip-rule="evenodd" d="M11 10H13V8H11V10Z" fill="black"/>
<path fill-rule="evenodd" clip-rule="evenodd" d="M8 10H10V8H8V10Z" fill="black"/>
</svg>
