<svg width="24" height="24" viewBox="0 0 24 24" fill="none" xmlns="http://www.w3.org/2000/svg">
<path d="M15 12.5858L16.4142 14L13.414 16.9995L16.4142 20L15 21.4142L12 18.4135L9 21.4142L7.58579 20L10.585 16.9995L7.83579 14.25L9.25 12.8358L12 15.5855L15 12.5858ZM8.06776 4.94149C9.22214 3.25903 11.6029 2.43092 13.9048 2.85538C16.6108 3.35437 18.4997 5.39955 18.7214 8.49542L18.9551 8.5623C21.4159 9.31614 22.839 11.3528 22.4545 13.5976C22.0104 16.1897 20.3718 17.9691 16.579 17.9691V15.9691C21.6331 15.9691 21.447 10.5095 16.8099 9.81725C17.051 7.54021 15.5307 5.18891 13.5421 4.82222C11.753 4.49231 9.78491 5.3864 8.96954 6.98589C7.34106 6.25939 6.36536 6.64128 5.52843 7.3478C4.69151 8.05431 5.00067 9.54155 5.30304 10.1712C4.21425 11.0857 3.40181 12.1841 3.15131 13.1583C3.04977 13.5531 3.05985 14.1718 3.15131 14.3703C3.57889 15.2982 4.16695 15.9691 7.55444 15.9691V17.9691C3.43727 17.9691 1.88169 17.01 1.10648 15.0963C0.454041 13.4857 1.24275 11.6385 2.98802 9.97795C2.44409 8.24405 2.99736 6.68135 4.37904 5.71107C5.43289 4.971 6.83798 4.68982 8.06776 4.94149Z" fill="black"/>
</svg>
