<svg width="24" height="24" viewBox="0 0 24 24" fill="none" xmlns="http://www.w3.org/2000/svg">
<path fill-rule="evenodd" clip-rule="evenodd" d="M11.5714 3.42857C8.41429 3.42857 5.85714 4.07143 5.85714 4.85714C5.85714 5.64286 8.41429 6.28571 11.5714 6.28571C14.7286 6.28571 17.2857 5.64286 17.2857 4.85714C17.2857 4.07143 14.7286 3.42857 11.5714 3.42857ZM11.5714 10.5714C6.84286 10.5714 3 9.28571 3 7.71429V4.85714C3 3.28571 6.84286 2 11.5714 2C16.3 2 20.1429 3.28571 20.1429 4.85714V7.71429C20.1429 9.28571 16.3 10.5714 11.5714 10.5714ZM11.5714 16.2857C6.84286 16.2857 3 15 3 13.4286V10.5714C3 10.4143 3.05714 10.2714 3.12857 10.1286C3.17143 10.0429 3.22857 9.94286 3.3 9.85714C4.25714 11.0857 7.58571 12 11.5714 12C15.5571 12 18.8857 11.0857 19.8429 9.85714C19.9143 9.94286 19.9714 10.0429 20.0143 10.1286C20.0857 10.2714 20.1429 10.4286 20.1429 10.5714V13.4286C20.1429 15 16.3 16.2857 11.5714 16.2857ZM11.5714 22C6.84286 22 3 20.7143 3 19.1429V16.2857C3 16.0429 3.12857 15.8 3.3 15.5714C4.25714 16.8 7.58571 17.7143 11.5714 17.7143C15.5571 17.7143 18.8857 16.8 19.8429 15.5714C20.0286 15.8 20.1429 16.0429 20.1429 16.2857V19.1429C20.1429 20.7143 16.3 22 11.5714 22Z" fill="black"/>
</svg>
