<svg width="24" height="24" viewBox="0 0 24 24" fill="none" xmlns="http://www.w3.org/2000/svg">
<path d="M12 18.75C15.7279 18.75 18.75 15.7279 18.75 12H21C21 16.9706 16.9706 21 12 21C7.02944 21 3 16.9706 3 12C3 7.02944 7.02944 3 12 3V5.25C8.27208 5.25 5.25 8.27208 5.25 12C5.25 15.7279 8.27208 18.75 12 18.75Z" fill="black"/>
<path d="M20.7532 9.89814L18.565 10.4217C18.4822 10.0756 18.3727 9.73993 18.2387 9.41684L20.3171 8.55497C20.4961 8.98676 20.6425 9.43551 20.7532 9.89814Z" fill="black"/>
<path d="M19.6749 7.29702L17.7576 8.47443C17.5721 8.17235 17.3633 7.88568 17.1336 7.61701L18.8438 6.15496C19.1495 6.5125 19.4276 6.89428 19.6749 7.29702Z" fill="black"/>
<path d="M17.8451 5.15624L16.383 6.86647C16.1144 6.63679 15.8277 6.42798 15.5256 6.24247L16.703 4.32513C17.1058 4.57245 17.4876 4.85058 17.8451 5.15624Z" fill="black"/>
<path d="M15.4451 3.68298L14.5832 5.76136C14.2601 5.62738 13.9245 5.51787 13.5784 5.43507L14.1019 3.24683C14.5645 3.35751 15.0133 3.50392 15.4451 3.68298Z" fill="black"/>
<path d="M15.0609 14.0147L12.75 12.364V8.25H11.25V13.136L14.1891 15.2353L15.0609 14.0147Z" fill="black"/>
</svg>
