<svg width="24" height="24" viewBox="0 0 24 24" fill="none" xmlns="http://www.w3.org/2000/svg">
<path d="M12.9474 7L12.0632 7.875L15.6 11.375H13.352L14.602 12.625H15.6L15.0984 13.1214L15.978 14.0009L18 12L12.9474 7Z" fill="black"/>
<path d="M13.9568 16.0011L13.0772 15.1215L12.0632 16.125L12.9474 17L13.9568 16.0011Z" fill="black"/>
<path d="M10.5807 12.625L9.33072 11.375H6V12.625H10.5807Z" fill="black"/>
<path fill-rule="evenodd" clip-rule="evenodd" d="M22 12C22 6.47715 17.5228 2 12 2C6.47715 2 2 6.47715 2 12C2 17.5228 6.47715 22 12 22C17.5228 22 22 17.5228 22 12ZM6.95581 5.62999C8.34154 4.5312 10.0941 3.875 12 3.875C16.4873 3.875 20.125 7.51269 20.125 12C20.125 13.9059 19.4688 15.6585 18.37 17.0442L6.95581 5.62999ZM5.62999 6.95581C4.5312 8.34154 3.875 10.0941 3.875 12C3.875 16.4873 7.51269 20.125 12 20.125C13.9059 20.125 15.6585 19.4688 17.0442 18.37L14.3179 15.6437L14.3122 15.6494L13.4326 14.7698L13.4383 14.7642L11.2992 12.625H11.2878L10.0378 11.375H10.0492L5.62999 6.95581Z" fill="black"/>
</svg>
