<svg width="24" height="24" viewBox="0 0 24 24" fill="none" xmlns="http://www.w3.org/2000/svg">
<path fill-rule="evenodd" clip-rule="evenodd" d="M22 12C22 6.47715 17.5228 2 12 2C6.47715 2 2 6.47715 2 12C2 17.5228 6.47715 22 12 22C17.5228 22 22 17.5228 22 12ZM6.95581 5.62999C8.34154 4.5312 10.0941 3.875 12 3.875C16.4873 3.875 20.125 7.51269 20.125 12C20.125 13.9059 19.4688 15.6585 18.37 17.0442L15.6507 14.3249L18 12L12.9474 7L12.0632 7.875L15.6 11.375H12.7008L6.95581 5.62999ZM5.62999 6.95581C4.5312 8.34154 3.875 10.0941 3.875 12C3.875 16.4873 7.51269 20.125 12 20.125C13.9059 20.125 15.6585 19.4688 17.0442 18.37L14.3179 15.6437L12.9474 17L12.0632 16.125L13.4383 14.7642L11.2992 12.625H6V11.375H10.0492L5.62999 6.95581ZM13.9508 12.625L14.7711 13.4453L15.6 12.625H13.9508Z" fill="black"/>
</svg>
