<svg width="24" height="24" viewBox="0 0 24 24" fill="none" xmlns="http://www.w3.org/2000/svg">
<path fill-rule="evenodd" clip-rule="evenodd" d="M22 12C22 6.47715 17.5228 2 12 2C9.74271 2 7.66011 2.74791 5.98647 4.00944L7.32846 5.35143C8.64992 4.42122 10.2612 3.875 12 3.875C16.4873 3.875 20.125 7.51269 20.125 12C20.125 13.7388 19.5788 15.3501 18.6486 16.6715L18.9121 16.935L18.5865 17.2606L6.375 5.04917L6.34705 5.07713L5.59229 4.32236C3.39674 6.15673 2 8.91525 2 12C2 17.5228 6.47715 22 12 22C17.5228 22 22 17.5228 22 12ZM5.62999 6.95581C5.62831 6.95792 5.62664 6.96004 5.62497 6.96215L5.06282 6.4L4.70926 6.75355L5.32375 7.36804C4.41039 8.68203 3.875 10.2785 3.875 12C3.875 16.4873 7.51269 20.125 12 20.125C13.7215 20.125 15.318 19.5896 16.632 18.6763L17.4372 19.4815L17.7907 19.1279L17.0378 18.375C17.04 18.3734 17.0421 18.3717 17.0442 18.37L14.3179 15.6437L14.3122 15.6494L13.4326 14.7698L13.4383 14.7642L11.2992 12.625H11.2878L10.0378 11.375H10.0492L5.62999 6.95581ZM13.352 11.375L14.602 12.625H15.6L15.0984 13.1214L15.978 14.001L18 12L12.9474 7L12.0632 7.875L15.6 11.375H13.352ZM9.33071 11.375H6V12.625H10.5807L9.33071 11.375ZM13.0772 15.1215L12.0632 16.125L12.9474 17L13.9568 16.0011L13.0772 15.1215Z" fill="black"/>
</svg>
