<svg width="24" height="24" viewBox="0 0 24 24" fill="none" xmlns="http://www.w3.org/2000/svg">
<path d="M3.10557 6.44721C2.49674 6.75162 2.08941 7.34164 2.01303 8.00781L11.4855 13.6913C11.8022 13.8813 12.1978 13.8813 12.5145 13.6913L21.987 8.00781C21.9106 7.34164 21.5033 6.75162 20.8944 6.44721L12.4472 2.2236C12.1657 2.08284 11.8343 2.08284 11.5528 2.2236L3.10557 6.44721Z" fill="black"/>
<path d="M22 9.99999L17.6169 12.6299L22 17.5V9.99999Z" fill="black"/>
<path d="M22 20L16.0594 13.5644L12.5145 15.6913C12.1978 15.8813 11.8022 15.8813 11.4855 15.6913L7.94059 13.5643L2 20C2 21.1046 2.89543 22 4 22H20C21.1046 22 22 21.1046 22 20Z" fill="black"/>
<path d="M2 17.5L6.38312 12.6299L2 9.99999V17.5Z" fill="black"/>
</svg>
