<svg width="24" height="24" viewBox="0 0 24 24" fill="none" xmlns="http://www.w3.org/2000/svg">
<path d="M4 4C2.89543 4 2 4.89543 2 6L11.4855 11.6913C11.8022 11.8813 12.1978 11.8813 12.5145 11.6913L22 6C22 4.89543 21.1046 4 20 4H4Z" fill="black"/>
<path d="M22 8L17.6169 10.6299L22 15.5V8Z" fill="black"/>
<path d="M22 18L16.0594 11.5644L12.5145 13.6913C12.1978 13.8813 11.8022 13.8813 11.4855 13.6913L7.94059 11.5644L2 18C2 19.1046 2.89543 20 4 20H20C21.1046 20 22 19.1046 22 18Z" fill="black"/>
<path d="M2 15.5L6.38312 10.6299L2 8V15.5Z" fill="black"/>
</svg>
