<svg width="24" height="24" viewBox="0 0 24 24" fill="none" xmlns="http://www.w3.org/2000/svg">
<path fill-rule="evenodd" clip-rule="evenodd" d="M2.00413 8.00248C2.04997 7.28924 2.47445 6.65035 3.12258 6.33393L11.5613 2.21418C11.8381 2.07902 12.1619 2.07902 12.4387 2.21418L20.8774 6.33393C21.5256 6.65035 21.95 7.28924 21.9959 8.00248L22 8V19.882C22 20.9865 21.1046 21.882 20 21.882H4C2.89543 21.882 2 20.9865 2 19.882V8L2.00413 8.00248ZM4 11.2V17.5L7.68182 13.4091L4 11.2ZM4 20L9.22772 14.3366L11.4855 15.6913C11.8022 15.8813 12.1978 15.8813 12.5145 15.6913L14.7723 14.3366L20 20H4ZM20 17.5V11.2L16.3182 13.4091L20 17.5ZM20 9.2L12.5145 13.6913C12.1978 13.8813 11.8022 13.8813 11.4855 13.6913L4 9.2V8L11.5528 4.22361C11.8343 4.08285 12.1657 4.08285 12.4472 4.22361L20 8V9.2Z" fill="black"/>
</svg>
