<svg width="24" height="24" viewBox="0 0 24 24" fill="none" xmlns="http://www.w3.org/2000/svg">
<path fill-rule="evenodd" clip-rule="evenodd" d="M4 4H20C21.1046 4 22 4.89543 22 6V18C22 19.1046 21.1046 20 20 20H4C2.89543 20 2 19.1046 2 18V6C2 4.89543 2.89543 4 4 4ZM4 9.2V15.5L7.68182 11.4091L4 9.2ZM4 7.2V6H20V7.2L12.5145 11.6913C12.1978 11.8813 11.8022 11.8813 11.4855 11.6913L4 7.2ZM20 9.2L16.3182 11.4091L20 15.5V9.2ZM20 18L14.7723 12.3366L12.5145 13.6913C12.1978 13.8813 11.8022 13.8813 11.4855 13.6913L9.22772 12.3366L4 18H20Z" fill="black"/>
</svg>
