<svg width="24" height="24" viewBox="0 0 24 24" fill="none" xmlns="http://www.w3.org/2000/svg">
<path d="M19 14V20.5714C19 21.3571 18.2857 22 17.5 22H3.5C2.71429 22 2 21.2857 2 20.5V3.5C2 2.71429 2.71429 2 3.5 2H10L9 3.5H3.5V20.5H17.5V14H19ZM6 18.5H15V17H6V18.5ZM6 15.5H15V14H6V15.5ZM6 12.5H11V11H6V12.5ZM6 9.5H9V8H6V9.5ZM16.5 12C19.5376 12 22 9.53757 22 6.5C22 3.46243 19.5376 1 16.5 1C13.4624 1 11 3.46243 11 6.5C11 9.53757 13.4624 12 16.5 12ZM13 6.66152L14.0255 5.65677L15.9091 7.49525L19.4745 4L20.5 5.01188L15.9091 9.51188L13 6.66152Z" fill="black"/>
</svg>
