<svg width="24" height="24" viewBox="0 0 24 24" fill="none" xmlns="http://www.w3.org/2000/svg">
<path d="M19 14V20.5714C19 21.3571 18.2857 22 17.5 22H3.5C2.71429 22 2 21.2857 2 20.5V3.5C2 2.71429 2.71429 2 3.5 2H9V3.5H3.5V20.5H17.5V14H19ZM6 18.5H15V17H6V18.5ZM6 15.5H15V14H6V15.5ZM6 12.5H10V11H6V12.5ZM6 9.5H9V8H6V9.5ZM19 1C20.6569 1 22 2.34315 22 4V9C22 10.6569 20.6569 12 19 12H14C12.3431 12 11 10.6569 11 9V4C11 2.34315 12.3431 1 14 1H19ZM18.9425 3L16.5 5.4425L14.0575 3L13 4.0575L15.4425 6.5L13 8.9425L14.0575 10L16.5 7.5575L18.9425 10L20 8.9425L17.5575 6.5L20 4.0575L18.9425 3Z" fill="black"/>
</svg>
