<svg width="24" height="24" viewBox="0 0 24 24" fill="none" xmlns="http://www.w3.org/2000/svg">
<path d="M21.0086 19.0792C20.7004 14.3665 19.2141 3 12.0446 3C7.97742 3 5.73918 6.65782 4.50743 10.6838H6.61842C7.09478 9.27182 7.69127 8.00882 8.4236 7.03237C9.42117 5.70228 10.573 5.0099 12.0446 5.0099C13.5161 5.0099 14.668 5.70228 15.6655 7.03237C16.7055 8.41905 17.4716 10.3836 18.0087 12.532C18.5387 14.6521 18.8088 16.7974 18.9449 18.4296C18.9741 18.7808 18.6951 19.0792 18.3427 19.0792H5.74646C5.39409 19.0792 5.11502 18.7808 5.14429 18.4296C5.24122 17.2664 5.4063 15.8424 5.68502 14.3528H3.64219C3.32151 16.1678 3.16096 17.8499 3.08058 19.0792C3.0081 20.1879 3.90071 21.0891 5.01179 21.0891H19.0774C20.1884 21.0891 21.081 20.1879 21.0086 19.0792Z" fill="black"/>
<path d="M12.8569 13.3845H3V11.7096H12.8569L9.8588 8.7031L11.0396 7.52228L16.0644 12.547L11.0396 17.5718L9.8588 16.391L12.8569 13.3845Z" fill="black"/>
</svg>
