<svg width="24" height="24" viewBox="0 0 24 24" fill="none" xmlns="http://www.w3.org/2000/svg">
<path fill-rule="evenodd" clip-rule="evenodd" d="M5.85557 6.44721C6.1454 7.02687 6.49922 7.54749 6.91829 8H4C2.89543 8 2 8.89543 2 10V14H3V20C3 21.1046 3.89543 22 5 22H19C20.1046 22 21 21.1046 21 20V14H22V10C22 8.89543 21.1046 8 20 8H17.0817C17.5008 7.54749 17.8546 7.02687 18.1444 6.44721C18.7888 5.15841 19 3.89139 19 3V2H18C15.1096 2 13.1296 3.23861 12 5.27842C10.8704 3.23861 8.89042 2 6 2H5V3C5 3.89139 5.21117 5.15841 5.85557 6.44721ZM13 20H19V14H13V20ZM13 12H20V10H13V12ZM11 10H4V12H11V10ZM11 14V20H5V14H11ZM16.3556 5.55279C16.5869 5.09006 16.752 4.59302 16.8598 4.08911C15.2925 4.35155 14.2763 5.18338 13.6444 6.44721C13.4593 6.8174 13.3167 7.20954 13.2118 7.60959L13.1402 7.91089C14.7075 7.64845 15.7237 6.81662 16.3556 5.55279ZM7.1402 4.08911C7.24798 4.59302 7.41306 5.09006 7.64443 5.55279C8.27635 6.81662 9.29247 7.64845 10.8598 7.91089L10.7882 7.60959C10.6833 7.20954 10.5407 6.8174 10.3556 6.44721C9.72365 5.18338 8.70753 4.35155 7.1402 4.08911Z" fill="black"/>
</svg>
