<svg width="24" height="24" viewBox="0 0 24 24" fill="none" xmlns="http://www.w3.org/2000/svg">
<path fill-rule="evenodd" clip-rule="evenodd" d="M12 14.9714C10.4314 14.9714 9.17143 13.7114 9.17143 12.1429C9.17143 10.5743 10.4314 9.31429 12 9.31429C13.5686 9.31429 14.8286 10.5743 14.8286 12.1429C14.8286 13.7114 13.5686 14.9714 12 14.9714ZM16.9629 10.8571C16.3843 8.64571 14.3914 7 12 7C9.60857 7 7.61571 8.64571 7.03714 10.8571H3V13.4286H7.03714C7.61571 15.64 9.60857 17.2857 12 17.2857C14.3914 17.2857 16.3843 15.64 16.9629 13.4286H21V10.8571H16.9629Z" fill="black"/>
</svg>
