<svg width="24" height="24" viewBox="0 0 24 24" xmlns="http://www.w3.org/2000/svg" xmlns:xlink="http://www.w3.org/1999/xlink">
  <path d="M7.398 8.04c-.792 0-1.44-.66-1.44-1.44 0-.78.66-1.44 1.44-1.44.78 0 1.44.66 1.44 1.44 0 .78-.66 1.44-1.44 1.44m1.44 10.56c0 .792-.66 1.44-1.44 1.44-.78 0-1.44-.66-1.44-1.44 0-.781.66-1.44 1.44-1.44.78 0 1.44.659 1.44 1.44m.96-12c0-1.332-1.068-2.4-2.4-2.4a2.391 2.391 0 0 0-1.2 4.464v7.872A2.39 2.39 0 0 0 7.398 21a2.39 2.39 0 0 0 1.2-4.464V8.664a2.386 2.386 0 0 0 1.2-2.064m7.2 13.44c-.792 0-1.44-.66-1.44-1.44 0-.781.66-1.44 1.44-1.44.78 0 1.44.659 1.44 1.44 0 .78-.66 1.44-1.44 1.44m1.2-3.504V9c-.036-.936-.408-1.764-1.128-2.472S15.534 5.436 14.598 5.4h-1.2V3l-3.6 3.6 3.6 3.6V7.8h1.2c.324.024.576.132.828.372s.36.504.372.828v7.536a2.392 2.392 0 0 0 1.2 4.464 2.39 2.39 0 0 0 1.2-4.464" fill="currentColor"/>
</svg>
