<svg width="24" height="24" viewBox="0 0 24 24" fill="none" xmlns="http://www.w3.org/2000/svg">
<path d="M18 11H20V20.5C20 21.2857 19.2857 22 18.5 22H5.5C4.71429 22 4 21.2857 4 20.5V4C4 2.5 4.5 2 6 2H13C12.6921 2.3079 12.3672 2.63276 12.0254 2.97457C11.6836 3.31638 11.3418 3.65819 11 4H6V20H18V11ZM8 18H16V16H8V18ZM8 15H16V13H8V15ZM8 12H14V10H8V12ZM21 7C21.1692 7.50249 21.4192 7.91916 21.75 8.25C22.0808 8.58084 22.4975 8.83084 23 9C22.5017 9.16501 22.085 9.41501 21.75 9.75C21.415 10.085 21.165 10.5017 21 11C20.8294 10.4961 20.5794 10.0794 20.25 9.75C19.9206 9.42061 19.5039 9.17061 19 9C19.5 8.83333 19.9167 8.58333 20.25 8.25C20.5833 7.91667 20.8333 7.5 21 7ZM17 0C17.4058 1.23916 18.0308 2.28083 18.875 3.125C19.7192 3.96917 20.7608 4.59417 22 5C20.7415 5.42518 19.6998 6.05018 18.875 6.875C18.0502 7.69982 17.4252 8.74148 17 10C16.5833 8.75 15.9583 7.70833 15.125 6.875C14.2917 6.04167 13.25 5.41667 12 5C13.2637 4.56959 14.3054 3.94459 15.125 3.125C15.9446 2.30541 16.5696 1.26375 17 0ZM11 6V8H8V6H11ZM17 3C16.8333 3.5 16.5833 3.91667 16.25 4.25C15.9167 4.58333 15.5 4.83333 15 5C15.5039 5.17061 15.9206 5.42061 16.25 5.75C16.5794 6.07939 16.8294 6.49606 17 7C17.165 6.50166 17.415 6.08499 17.75 5.75C18.085 5.41501 18.5017 5.16501 19 5C18.4975 4.83084 18.0808 4.58084 17.75 4.25C17.4192 3.91916 17.1692 3.50249 17 3Z" fill="black"/>
</svg>
