<svg width="24" height="24" viewBox="0 0 24 24" fill="none" xmlns="http://www.w3.org/2000/svg">
<path fill-rule="evenodd" clip-rule="evenodd" d="M12.8145 18.637L12.714 18.6659C12.5453 18.7086 12.3736 18.7304 12.2034 18.7304H12.1039L12.0146 18.7228C11.921 18.7168 11.8103 18.6985 11.6953 18.6685L11.6337 18.6592L11.4707 18.6013C11.363 18.5579 7.63796 16.9342 4.79644 15.6935C3.45163 16.3909 2.3971 16.9385 2.23733 17.0224C2.16329 17.0571 2.09613 17.1025 2.05262 17.1706C1.99894 17.2517 1.99055 17.3415 2.00861 17.4269C2.00912 17.4308 2.00912 17.4344 2.00988 17.4379C2.02006 17.4788 2.03914 17.5168 2.06356 17.5536C2.06967 17.5622 2.06967 17.5715 2.07705 17.5801C2.07883 17.5829 2.08214 17.584 2.08392 17.587C2.10249 17.6081 2.12615 17.625 2.15032 17.6433C2.17474 17.664 2.19891 17.6844 2.22842 17.6997C2.2302 17.7008 2.233 17.7036 2.23529 17.7045C2.363 17.764 11.8637 21.9101 11.9947 21.9631C12.0052 21.9677 12.0154 21.967 12.0255 21.9703C12.069 21.9853 12.1123 21.9957 12.1596 21.9989C12.1711 22 12.182 22 12.1927 22C12.2425 22 12.2904 21.9948 12.3397 21.9817C12.3479 21.9795 12.355 21.9763 12.3626 21.9735C12.3939 21.9638 12.4252 21.9591 12.4532 21.9431L21.772 17.1109C21.7873 17.1045 21.7949 17.0924 21.8079 17.0849C21.8328 17.0693 21.8544 17.0534 21.8756 17.0342C21.8979 17.0142 21.9165 16.993 21.9333 16.9702C21.9409 16.9588 21.9529 16.9519 21.9595 16.9398C21.9659 16.929 21.9651 16.9172 21.9705 16.9058C21.9811 16.8805 21.9883 16.8555 21.9933 16.8286C21.9979 16.8038 22.001 16.7797 21.9997 16.7549C21.9984 16.7308 21.9941 16.7073 21.987 16.6825C21.9799 16.6564 21.9705 16.6312 21.957 16.6066C21.9514 16.5956 21.9514 16.584 21.944 16.573C21.9364 16.5622 21.9236 16.5553 21.9147 16.545C21.8962 16.5226 21.8758 16.5038 21.8529 16.4849C21.829 16.4674 21.8061 16.4523 21.7799 16.4394C21.7657 16.4318 21.7567 16.4211 21.7428 16.415L19.264 15.3333L13.1363 18.511C13.0284 18.5743 12.8931 18.6155 12.8145 18.637Z" fill="black"/>
<path fill-rule="evenodd" clip-rule="evenodd" d="M12.8188 13.8735L12.7236 13.901C12.5562 13.945 12.3759 13.9683 12.1927 13.9683H12.1199L12.0143 13.9601C11.9141 13.9538 11.7948 13.9332 11.6724 13.9002L11.6157 13.8905L11.4707 13.8392C11.3541 13.792 7.6344 12.1704 4.7967 10.9314C3.45163 11.6294 2.3971 12.1769 2.23733 12.2609C2.16329 12.2954 2.09613 12.3409 2.05262 12.4085C1.99894 12.4898 1.99055 12.5799 2.00861 12.6657C2.00912 12.6689 2.00912 12.6726 2.00988 12.6758C2.02006 12.7174 2.03914 12.7549 2.06356 12.7917C2.06967 12.8004 2.06967 12.8094 2.07705 12.8183C2.07883 12.8215 2.08214 12.8226 2.08392 12.8252C2.10249 12.8463 2.12615 12.8637 2.15032 12.882C2.17474 12.9021 2.19891 12.923 2.22842 12.9383C2.2302 12.9394 2.233 12.9417 2.23529 12.9428C2.363 13.0023 11.8637 17.1492 11.9947 17.2022C12.0052 17.2061 12.0154 17.2054 12.0255 17.2087C12.069 17.2238 12.1123 17.2341 12.1596 17.2373C12.1711 17.2384 12.182 17.238 12.1927 17.238C12.2425 17.2391 12.2904 17.2326 12.3397 17.2201C12.3479 17.2173 12.355 17.2147 12.3626 17.2119C12.3939 17.2022 12.4252 17.1979 12.4532 17.1815L21.772 12.3499C21.7873 12.3424 21.7949 12.331 21.8079 12.3234C21.8328 12.3079 21.8544 12.2919 21.8756 12.2732C21.8979 12.2527 21.9165 12.2322 21.9333 12.2088C21.9409 12.1973 21.9529 12.1904 21.9595 12.1784C21.9659 12.1676 21.9651 12.1562 21.9705 12.1443C21.9811 12.1195 21.9883 12.0941 21.9933 12.0672C21.9979 12.0428 22.001 12.0178 21.9997 11.9941C21.9984 11.9691 21.9941 11.9458 21.987 11.9215C21.9799 11.8956 21.9705 11.8695 21.957 11.8456C21.9514 11.8342 21.9514 11.823 21.944 11.8122C21.9364 11.8008 21.9236 11.7939 21.9147 11.784C21.8962 11.7613 21.8758 11.7419 21.8529 11.7234C21.8293 11.7055 21.8061 11.6911 21.7802 11.6768C21.7659 11.6699 21.757 11.6596 21.743 11.6531L19.2645 10.5714L13.136 13.7491C13.0226 13.8129 12.8936 13.853 12.8188 13.8735Z" fill="black"/>
<path fill-rule="evenodd" clip-rule="evenodd" d="M12.0286 2.04501C12.0113 2.03655 11.9927 2.03586 11.9757 2.03014C11.949 2.01984 11.9227 2.01183 11.8945 2.00725C11.8594 2.00039 11.8261 1.99924 11.791 2.00039C11.7686 2.00084 11.747 2.00153 11.7238 2.00588C11.6836 2.0116 11.6459 2.02442 11.6093 2.04044C11.5991 2.04501 11.5864 2.04456 11.5755 2.05005C11.4523 2.11413 2.72198 6.92052 2.23733 7.19126C2.16329 7.22788 2.09613 7.27685 2.05262 7.34802C1.99894 7.4343 1.99055 7.53088 2.00861 7.62105C2.00912 7.62517 2.00912 7.62837 2.00988 7.6318C2.02006 7.67597 2.03914 7.71579 2.06356 7.75493C2.06967 7.76408 2.06967 7.77438 2.07705 7.78353C2.07883 7.78651 2.08214 7.78765 2.08392 7.7904C2.10249 7.81351 2.12615 7.83113 2.15032 7.85082C2.17474 7.8721 2.19891 7.8943 2.22842 7.91009C2.2302 7.91238 2.233 7.91467 2.23529 7.91558C2.363 7.97875 11.8637 12.3808 11.9947 12.4377C12.0052 12.4419 12.0154 12.4419 12.0255 12.4451C12.069 12.4611 12.1123 12.4716 12.1596 12.475C12.1711 12.4762 12.182 12.4762 12.1927 12.4762C12.2425 12.4762 12.2904 12.4705 12.3397 12.4567C12.3479 12.4542 12.355 12.451 12.3626 12.4487C12.3939 12.4382 12.4252 12.4332 12.4532 12.4165L21.772 7.286C21.7873 7.27799 21.7949 7.26518 21.8079 7.25717C21.8328 7.24115 21.8544 7.22376 21.8756 7.20385C21.8979 7.18256 21.9165 7.16036 21.9333 7.13542C21.9409 7.12398 21.9529 7.11597 21.9595 7.10315C21.9659 7.09171 21.9651 7.07958 21.9705 7.06768C21.9811 7.03999 21.9883 7.01367 21.9933 6.98506C21.9979 6.9592 22.001 6.93311 21.9997 6.90679C21.9984 6.88162 21.9941 6.85622 21.987 6.83104C21.9799 6.80221 21.9705 6.77589 21.957 6.74957C21.9514 6.7379 21.9514 6.72577 21.944 6.71501C21.9364 6.70243 21.9236 6.69556 21.9147 6.68412C21.8962 6.661 21.8758 6.64041 21.8529 6.62095C21.8293 6.60127 21.8061 6.58594 21.7802 6.57152C21.7659 6.56351 21.757 6.55184 21.743 6.54635L12.0286 2.04501Z" fill="black"/>
</svg>
