<svg width="24" height="24" viewBox="0 0 24 24" xmlns="http://www.w3.org/2000/svg" xmlns:xlink="http://www.w3.org/1999/xlink">
  <path d="M12.409 5.273l8.915 3.958c.46.204.676.681.676 1.108 0 .427-.216.904-.676 1.108l-3.111 1.381v3.767c0 .145-.05.279-.134.385-.157.35-.434.633-.743.858-.377.274-.855.502-1.39.684-1.073.365-2.462.578-3.963.578-1.5 0-2.89-.213-3.962-.578-.536-.182-1.014-.41-1.39-.684-.31-.225-.586-.509-.744-.858a.618.618 0 0 1-.133-.385v-2.824l.029-.945L5.5 12.5c-.38.525-.897 1.436-1.023 2.536a1.122 1.122 0 0 1 .007 1.912c.015.187.01.38-.007.566a3.863 3.863 0 0 1-.032.247h.028c0 .004.003.028.016.074.015.052.04.119.077.196.074.156.186.333.327.497.3.35.628.533.9.533L5.014 20c-.346 0-.726-.252-1.14-.756-.583.504-1.04.756-1.374.756l-.404-.987c.37 0 .703-.266.938-.812.112-.26.181-.546.207-.806a1.625 1.625 0 0 0-.017-.496 1.122 1.122 0 0 1 .329-1.976c.134-1.173.522-2.041.942-2.668l-1.819-.808C2.216 11.243 2 10.766 2 10.34c0-.427.216-.904.676-1.108l8.915-3.958c.262-.116.556-.116.818 0zm-.432 3.745l-5.52 2.749L12 14.227l8.758-3.888L12 6.45 3.242 10.34l2.11.937L11 8.5l.977.518zm4.994 4.362l-4.562 2.025a1.002 1.002 0 0 1-.818 0L7.01 13.371l-.013.429v2.6a.553.553 0 0 1 .008.027c.022.079.107.224.358.407.244.178.6.356 1.059.512.917.313 2.167.512 3.562.512s2.645-.2 3.563-.512c.46-.156.814-.334 1.058-.512.251-.183.336-.328.358-.407a.553.553 0 0 1 .009-.027v-3.02zM17 2.5V1h6v6h-1.5V3.429L18.25 6.75 17 6l3.5-3.5H17z" fill="currentColor"/>
</svg>
