<svg width="24" height="24" viewBox="0 0 24 24" fill="none" xmlns="http://www.w3.org/2000/svg">
<path fill-rule="evenodd" clip-rule="evenodd" d="M4.17748 16.6935C5.32537 16.6908 6.25524 15.7609 6.25798 14.613V14.6125V12.5325H4.17698C3.02929 12.5355 2.09973 13.4653 2.09698 14.613C2.09973 15.7609 3.0296 16.6908 4.17748 16.6935ZM9.38698 12.5325C8.2391 12.5352 7.30923 13.4651 7.30648 14.613V19.823C7.30951 20.9709 8.2396 21.9005 9.38748 21.903C10.5352 21.9 11.4647 20.9702 11.4675 19.8225V14.6125C11.4645 13.4648 10.5347 12.5352 9.38698 12.5325Z" fill="#E01E5A"/>
<path fill-rule="evenodd" clip-rule="evenodd" d="M7.3065 4.1775C7.30925 5.32539 8.23911 6.25525 9.387 6.258H9.3875H11.4675V4.177C11.4645 3.02931 10.5347 2.09975 9.387 2.097C8.23911 2.09975 7.30925 3.02961 7.3065 4.1775ZM11.4675 9.387C11.4647 8.23911 10.5349 7.30925 9.387 7.3065H9.3865H4.1765C3.02861 7.30952 2.09897 8.23961 2.0965 9.3875C2.09952 10.5352 3.0293 11.4648 4.177 11.4675H9.3875C10.5352 11.4645 11.4647 10.5347 11.4675 9.387Z" fill="#36C5F0"/>
<path fill-rule="evenodd" clip-rule="evenodd" d="M14.613 11.4675C15.7609 11.4648 16.6907 10.5349 16.6935 9.387V9.3865V4.1765C16.6904 3.02861 15.7604 2.09897 14.6125 2.0965C13.4648 2.09952 12.5352 3.02931 12.5325 4.177V9.3875C12.5355 10.5352 13.4653 11.4648 14.613 11.4675ZM19.8225 7.3065C18.6746 7.30925 17.7447 8.23911 17.742 9.387V9.3875V11.4675H19.823C20.9707 11.4645 21.9002 10.5347 21.903 9.387C21.9002 8.23911 20.9704 7.30925 19.8225 7.3065Z" fill="#2EB67D"/>
<path fill-rule="evenodd" clip-rule="evenodd" d="M12.5325 14.613C12.5352 15.7609 13.4651 16.6908 14.613 16.6935H19.823C20.9709 16.6905 21.9005 15.7604 21.903 14.6125C21.8999 13.4648 20.9702 12.5352 19.8225 12.5325H14.6125C13.4648 12.5355 12.5352 13.4653 12.5325 14.613ZM16.6935 19.8225C16.6907 18.6746 15.7609 17.7447 14.613 17.742H14.6125H12.5325V19.823C12.5355 20.9707 13.4653 21.9003 14.613 21.903C15.7609 21.9003 16.6907 20.9704 16.6935 19.8225Z" fill="#ECB22E"/>
</svg>
