<svg width="24" height="24" viewBox="0 0 24 24" fill="none" xmlns="http://www.w3.org/2000/svg">
<path d="M14.6092 7.90372H15.2153L16.9425 6.17644L17.0274 5.44311C15.0157 3.66753 12.2298 3.05657 9.65967 3.82735C7.08956 4.59814 5.09964 6.64139 4.39709 9.23099C4.58952 9.15212 4.80268 9.13933 5.00316 9.19463L8.4577 8.62493C8.4577 8.62493 8.63346 8.33402 8.72437 8.3522C10.261 6.66455 12.8471 6.46786 14.6213 7.90372H14.6092Z" fill="#EA4335"/>
<path d="M19.4032 9.23099C19.0062 7.76895 18.191 6.45459 17.0577 5.44917L14.6335 7.87341C15.6572 8.70985 16.2403 9.96988 16.2153 11.2916V11.7219C17.4069 11.7219 18.3729 12.6879 18.3729 13.8795C18.3729 15.0711 17.4069 16.0371 16.2153 16.0371H11.9002L11.4698 16.4734V19.0613L11.9002 19.4916H16.2153C18.6894 19.5109 20.8843 17.9076 21.6184 15.5448C22.3525 13.182 21.4526 10.6172 19.4032 9.23099Z" fill="#4285F4"/>
<path d="M7.57892 19.4674H11.8941V16.0128H7.57892C7.27148 16.0127 6.96765 15.9466 6.68801 15.8189L6.08195 16.0067L4.34256 17.734L4.19104 18.3401C5.16645 19.0766 6.35666 19.4727 7.57892 19.4674Z" fill="#34A853"/>
<path d="M7.57894 8.26129C5.18202 8.27561 3.05877 9.81065 2.29381 12.0823C1.52885 14.3539 2.29105 16.8606 4.19106 18.3219L6.69409 15.8189C5.81956 15.4238 5.31111 14.4985 5.44639 13.5485C5.58168 12.5984 6.3282 11.8519 7.27825 11.7166C8.2283 11.5813 9.15353 12.0898 9.54864 12.9643L12.0517 10.4613C10.9867 9.06903 9.3318 8.25504 7.57894 8.26129Z" fill="#FBBC05"/>
</svg>
