<svg width="24" height="24" viewBox="0 0 24 24" fill="none" xmlns="http://www.w3.org/2000/svg">
<path d="M3.01882 9.52759C1.35154 9.52759 0 10.8791 0 12.5464C0 14.2137 1.35154 15.5652 3.01882 15.5652C4.68611 15.5652 6.03764 14.2137 6.03764 12.5464C6.03764 10.8791 4.68592 9.52759 3.01882 9.52759ZM14.1665 7.50019C14.3579 7.50019 14.4273 7.64443 14.4273 7.73816L14.43 9.26543C14.4303 9.42273 14.5579 9.53816 14.7152 9.53816H16.0757C16.1819 9.53816 16.3012 9.63976 16.3012 9.82298V10.7794C16.3012 10.9586 16.1625 11.0403 16.064 11.0403L14.7133 11.0393C14.5521 11.0393 14.4332 11.1697 14.4332 11.3309V12.5629C14.4332 12.5902 14.43 12.6173 14.4313 12.6442C14.4736 13.4401 15.1281 14.0723 15.9344 14.0723C16.0137 14.0723 16.0919 14.066 16.1679 14.0541C16.3052 14.0326 16.433 14.128 16.4478 14.2663L16.5557 15.277C16.5703 15.4135 16.4731 15.5368 16.3367 15.5553C16.2052 15.5729 16.0707 15.5829 15.9342 15.5829C14.2942 15.5829 12.9576 14.2763 12.9144 12.6467V7.7322C12.9144 7.57721 13.0348 7.50019 13.1618 7.50019H14.1665ZM19.8202 9.52779C20.3614 9.52779 20.869 9.67222 21.3083 9.9217L21.3079 9.7936C21.3079 9.6386 21.4429 9.53796 21.5698 9.53796H22.5764C22.7681 9.53796 22.8378 9.69987 22.8378 9.7936L22.8398 12.5455C22.8398 12.5493 22.8403 12.5529 22.8403 12.5566C22.8423 13.7069 22.97 14.0105 23.8248 14.0105C23.9249 14.0105 23.9998 14.1111 24 14.211V15.2846C24 15.586 23.3549 15.5654 23.2331 15.5645C22.5211 15.5591 22.065 15.2722 21.7807 14.84C21.2531 15.2912 20.5688 15.5645 19.8202 15.5645C18.1529 15.5645 16.8013 14.2133 16.8013 12.546C16.8013 10.8787 18.1529 9.52779 19.8202 9.52779ZM8.06159 7.5C8.17702 7.5 8.32049 7.56511 8.32049 7.73988L8.32125 11.1632C8.32125 11.4081 8.62125 11.5258 8.78777 11.3464C9.39661 10.6905 10.3863 9.62401 10.3938 9.61671C10.4126 9.59827 10.4403 9.56927 10.5134 9.54757C10.5453 9.53816 10.582 9.53796 10.631 9.53796H11.8644C12.116 9.53796 12.1901 9.81703 12.0739 9.95973L10.2812 11.9508C9.98796 12.2614 9.9605 12.3805 10.2171 12.6868L10.3344 12.8097L12.5904 15.1223C12.7066 15.2649 12.6311 15.5481 12.3864 15.5481L11.0247 15.5487C10.9757 15.5487 10.9273 15.5455 10.8955 15.536C10.8223 15.5143 10.8063 15.4848 10.7873 15.4663C10.7796 15.459 9.52932 14.1423 8.77625 13.3721C8.60954 13.2015 8.31953 13.3198 8.31953 13.5584H8.31972V15.3094C8.31972 15.426 8.21793 15.5383 8.06159 15.5383H7.05288C6.93745 15.5383 6.79129 15.4905 6.79129 15.3157V7.71895C6.79129 7.61639 6.87714 7.5 7.05211 7.5H8.06159ZM3.01882 11.037C3.85237 11.037 4.52823 11.7129 4.52823 12.5464C4.52823 13.38 3.85237 14.0558 3.01882 14.0558C2.18528 14.0558 1.50941 13.38 1.50941 12.5464C1.50941 11.7129 2.18528 11.037 3.01882 11.037ZM19.8211 11.0364C18.9876 11.0364 18.3117 11.7123 18.3117 12.5458C18.3117 13.3794 18.9876 14.0553 19.8211 14.0553C20.6547 14.0553 21.3305 13.3796 21.3305 12.5458C21.3305 11.7123 20.6547 11.0364 19.8211 11.0364Z" fill="black"/>
</svg>
