<svg width="24" height="24" viewBox="0 0 24 24" fill="none" xmlns="http://www.w3.org/2000/svg">
<path fill-rule="evenodd" clip-rule="evenodd" d="M17.7748 12.1126C18.106 12.1921 18.4503 12.2318 18.7947 12.2318C19.1325 12.2318 19.4437 12.1854 19.7417 12.0927C20.0265 12.0066 20.2715 11.8874 20.4768 11.7219C20.6821 11.5629 20.8411 11.3642 20.9603 11.1391C21.0729 10.9139 21.1325 10.6556 21.1325 10.3709C21.1325 10.0265 21.0331 9.71523 20.8278 9.44371C20.6225 9.17219 20.2782 8.96026 19.8013 8.80795L18.8609 8.50993C18.5099 8.39735 18.2649 8.27152 18.1325 8.1457C18 8.01987 17.9338 7.86093 17.9338 7.6755C17.9338 7.40397 18.0397 7.21192 18.245 7.08609C18.4503 6.96026 18.7483 6.90066 19.1258 6.90066C19.596 6.90066 20.0199 6.98675 20.3974 7.15894C20.5099 7.21192 20.596 7.23841 20.649 7.23841C20.7483 7.23841 20.8013 7.16556 20.8013 7.02649V6.71523C20.8013 6.62252 20.7815 6.54967 20.7417 6.49669C20.702 6.43709 20.6358 6.38411 20.5431 6.33113C20.4768 6.29139 20.3841 6.25166 20.2649 6.21192C20.1457 6.17219 20.0199 6.13907 19.8874 6.10596C19.7483 6.07947 19.6093 6.05298 19.457 6.03311C19.3113 6.01324 19.1589 6.00662 19.0132 6.00662C18.7219 6.00662 18.4437 6.03973 18.1788 6.11921C17.9139 6.19868 17.6887 6.31126 17.4901 6.46358C17.2914 6.60927 17.1325 6.7947 17.0132 7.00662C16.894 7.21854 16.8344 7.46358 16.8344 7.74172C16.8344 8.08609 16.947 8.4106 17.1656 8.70199C17.3841 9 17.7417 9.22517 18.2252 9.37748L19.1854 9.6755C19.5099 9.78146 19.7351 9.89404 19.8543 10.0199C19.9735 10.1457 20.0331 10.298 20.0331 10.4834C20.0331 10.755 19.9139 10.9669 19.6887 11.1126C19.4636 11.2583 19.1391 11.3311 18.7219 11.3311C18.457 11.3311 18.1987 11.3046 17.9338 11.2517C17.6755 11.1987 17.4305 11.1192 17.2053 11.0199C17.1818 11.0105 17.1592 11.0011 17.138 10.9923C17.0993 10.9763 17.0654 10.9622 17.0397 10.9536C17 10.9404 16.9603 10.9338 16.9205 10.9338C16.8212 10.9338 16.7682 11 16.7682 11.1391V11.4768C16.7682 11.5364 16.7815 11.6026 16.808 11.6623C16.8344 11.7219 16.9073 11.7881 17.0132 11.8477C17.1854 11.947 17.4437 12.0331 17.7748 12.1126ZM7.72848 10.9205C7.68212 10.7748 7.65563 10.5762 7.65563 10.3311H7.64239V8.18543C7.64239 7.45695 7.45696 6.91391 7.09272 6.55629C6.72186 6.19868 6.1457 6.01987 5.35762 6.01987C4.99338 6.01987 4.64901 6.0596 4.32451 6.1457C4 6.22517 3.72186 6.3245 3.49007 6.44371C3.39736 6.49007 3.33775 6.53642 3.30464 6.58278C3.27153 6.62914 3.25828 6.70861 3.25828 6.81457V7.13907C3.25828 7.27815 3.30464 7.34437 3.39736 7.34437C3.42385 7.34437 3.45696 7.33775 3.50332 7.3245C3.54967 7.31126 3.62914 7.28477 3.7351 7.23841C3.96689 7.1457 4.2053 7.07285 4.45034 7.01324C4.69537 6.95364 4.93378 6.92715 5.16557 6.92715C5.6755 6.92715 6.03312 7.02649 6.24504 7.23179C6.45034 7.43709 6.5563 7.78808 6.5563 8.29139V8.77483C6.29139 8.71523 6.03974 8.66225 5.79471 8.62914C5.54967 8.59603 5.31788 8.57616 5.09272 8.57616C4.4106 8.57616 3.87418 8.74834 3.4702 9.09272C3.06623 9.43709 2.86755 9.89404 2.86755 10.457C2.86755 10.9868 3.03312 11.4106 3.35762 11.7285C3.68212 12.0464 4.12583 12.2053 4.68212 12.2053C5.46358 12.2053 6.11259 11.9007 6.62914 11.2914C6.70199 11.4437 6.76822 11.5695 6.83444 11.6821C6.90067 11.7881 6.98014 11.894 7.07285 11.9934C7.13908 12.053 7.2053 12.0861 7.27153 12.0861C7.32451 12.0861 7.38411 12.0662 7.44371 12.0265L7.86093 11.7483C7.94702 11.6821 7.98676 11.6159 7.98676 11.5497C7.98676 11.5033 7.97351 11.4503 7.9404 11.3974C7.84769 11.2252 7.78146 11.0662 7.72848 10.9205ZM5.64901 11.2185C5.4106 11.298 5.18543 11.3377 4.96689 11.3377C4.66226 11.3377 4.43047 11.2583 4.27153 11.0927C4.10596 10.9338 4.02649 10.702 4.02649 10.3907C4.02649 10.0596 4.13245 9.80795 4.351 9.62914C4.56954 9.45033 4.89404 9.36424 5.33775 9.36424C5.54305 9.36424 5.74835 9.37748 5.96027 9.40397C6.17219 9.43046 6.37749 9.4702 6.56954 9.51656V9.7947C6.56954 10.0199 6.54305 10.2119 6.50332 10.3709C6.46358 10.5298 6.38411 10.6689 6.27815 10.7947C6.09934 10.9934 5.88742 11.1391 5.64901 11.2185ZM10.2848 12.053C10.1656 12.053 10.0861 12.0331 10.0331 11.9868C9.98014 11.947 9.93378 11.8543 9.89404 11.7285L8.33775 6.60927C8.29802 6.47682 8.27815 6.39073 8.27815 6.34437C8.27815 6.23841 8.33113 6.17881 8.43709 6.17881H9.0861C9.21192 6.17881 9.29802 6.19868 9.34437 6.24503C9.39736 6.28477 9.43709 6.37748 9.47683 6.50331L10.5894 10.8874L11.6225 6.50331C11.6556 6.37086 11.6954 6.28477 11.7483 6.24503C11.8013 6.2053 11.894 6.17881 12.0132 6.17881H12.5431C12.6689 6.17881 12.755 6.19868 12.808 6.24503C12.8609 6.28477 12.9073 6.37748 12.9338 6.50331L13.9801 10.9404L15.1258 6.50331C15.1656 6.37086 15.2119 6.28477 15.2583 6.24503C15.3113 6.2053 15.3974 6.17881 15.5166 6.17881H16.1325C16.2384 6.17881 16.298 6.23179 16.298 6.34437C16.298 6.37265 16.2932 6.40093 16.2877 6.43333L16.2848 6.45033C16.2781 6.49007 16.2649 6.54305 16.2384 6.61589L14.6424 11.7351C14.6027 11.8675 14.5563 11.9536 14.5033 11.9934C14.4503 12.0331 14.3642 12.0596 14.2517 12.0596H13.6821C13.5563 12.0596 13.4702 12.0397 13.4172 11.9934C13.3642 11.947 13.3179 11.8609 13.2914 11.7285L12.2649 7.45695L11.245 11.7219C11.2119 11.8543 11.1722 11.9404 11.1192 11.9868C11.0662 12.0331 10.9735 12.053 10.8543 12.053H10.2848Z" fill="#252F3E"/>
<path fill-rule="evenodd" clip-rule="evenodd" d="M18.404 14.3311C19.1126 14.245 20.6755 14.0596 20.9537 14.4172C21.2318 14.7682 20.6424 16.245 20.3775 16.9007C20.298 17.0993 20.4702 17.1788 20.649 17.0265C21.8146 16.0464 22.1192 14 21.8808 13.702C21.6424 13.4106 19.596 13.1589 18.351 14.0331C18.159 14.1722 18.1921 14.3576 18.404 14.3311ZM11.9801 17.9139C14.702 17.9139 17.8676 17.0596 20.0464 15.4503C20.404 15.1854 20.0927 14.7815 19.7285 14.947C17.2848 15.9801 14.6292 16.4834 12.2119 16.4834C8.62915 16.4834 5.16558 15.4967 2.35763 13.8676C2.1126 13.7219 1.92717 13.9735 2.13246 14.1589C4.72849 16.5033 8.16558 17.9139 11.9801 17.9139Z" fill="#FF9900"/>
</svg>
