<svg width="24" height="24" viewBox="0 0 24 24" fill="none" xmlns="http://www.w3.org/2000/svg">
<path fill-rule="evenodd" clip-rule="evenodd" d="M12.0001 2C6.47791 2 2 6.59039 2 12.2532C2 16.7833 4.86533 20.6266 8.83867 21.9824C9.33844 22.0773 9.52192 21.76 9.52192 21.4891C9.52192 21.2446 9.51265 20.437 9.50834 19.5802C6.72631 20.2005 6.13927 18.3705 6.13927 18.3705C5.68437 17.1854 5.02894 16.8702 5.02894 16.8702C4.12163 16.2339 5.09733 16.2469 5.09733 16.2469C6.10151 16.3193 6.63026 17.3035 6.63026 17.3035C7.52217 18.871 8.96965 18.4178 9.5403 18.1559C9.63006 17.4932 9.88921 17.0409 10.1752 16.7848C7.95405 16.5256 5.61913 15.6464 5.61913 11.7177C5.61913 10.5982 6.00977 9.6836 6.64947 8.96556C6.54564 8.70731 6.20335 7.66448 6.74635 6.25218C6.74635 6.25218 7.58609 5.97661 9.49708 7.30317C10.2948 7.07599 11.1502 6.96206 12.0001 6.95816C12.8499 6.96206 13.7061 7.07599 14.5052 7.30317C16.4139 5.97661 17.2525 6.25218 17.2525 6.25218C17.7968 7.66448 17.4544 8.70731 17.3505 8.96556C17.9917 9.6836 18.3797 10.5982 18.3797 11.7177C18.3797 15.6557 16.0403 16.5228 13.8135 16.7767C14.1722 17.0949 14.4918 17.7188 14.4918 18.6754C14.4918 20.0473 14.4802 21.1514 14.4802 21.4891C14.4802 21.762 14.6602 22.0817 15.1671 21.981C19.1383 20.6237 22 16.7818 22 12.2532C22 6.59039 17.5227 2 12.0001 2Z" fill="#161514"/>
</svg>
