<svg width="24" height="24" viewBox="0 0 24 24" fill="none" xmlns="http://www.w3.org/2000/svg">
<path fill-rule="evenodd" clip-rule="evenodd" d="M6.20081 14.6385C6.19764 15.7972 5.25911 16.7357 4.1004 16.7389C2.94226 16.7357 2.00396 15.7981 2 14.6399C2.00317 13.4812 2.9417 12.5427 4.1004 12.5395H6.20225V14.6399L6.20081 14.6385ZM7.26111 14.6385C7.26427 13.4803 8.20193 12.542 9.36007 12.5381C10.5188 12.5413 11.4573 13.4798 11.4605 14.6385V19.8996C11.4573 21.0583 10.5188 21.9968 9.36007 22C8.20136 21.9968 7.26284 21.0583 7.25967 19.8996V14.6385H7.26111ZM9.36151 6.20081C8.20281 6.19764 7.26428 5.25911 7.26111 4.1004C7.26427 2.94226 8.20193 2.00396 9.36007 2C10.5188 2.00317 11.4573 2.9417 11.4605 4.1004V6.20225H9.36151V6.20081ZM9.36151 7.26111C10.5197 7.26427 11.458 8.20193 11.4619 9.36007C11.4587 10.5188 10.5202 11.4573 9.36151 11.4605H4.1004C2.94226 11.4573 2.00396 10.5197 2 9.36151C2.00317 8.20281 2.9417 7.26428 4.1004 7.26111H9.36151ZM17.7992 9.36151C17.8024 8.20281 18.7409 7.26428 19.8996 7.26111C21.0583 7.26428 21.9968 8.20281 22 9.36151C21.9968 10.5202 21.0583 11.4587 19.8996 11.4619H17.7977V9.36151H17.7992ZM16.7389 9.36151C16.7357 10.5197 15.7981 11.458 14.6399 11.4619C13.4812 11.4587 12.5427 10.5202 12.5395 9.36151V4.1004C12.5427 2.94226 13.4803 2.00396 14.6385 2C15.7972 2.00317 16.7357 2.9417 16.7389 4.1004V9.36151ZM14.6385 17.7992C15.7972 17.8024 16.7357 18.7409 16.7389 19.8996C16.7357 21.0583 15.7972 21.9968 14.6385 22C13.4798 21.9968 12.5413 21.0583 12.5381 19.8996V17.7977H14.6385V17.7992ZM14.6385 16.7389C13.4803 16.7357 12.542 15.7981 12.5381 14.6399C12.5413 13.4812 13.4798 12.5427 14.6385 12.5395H19.8996C21.0583 12.5427 21.9968 13.4812 22 14.6399C21.9968 15.7986 21.0583 16.7372 19.8996 16.7403H14.6385V16.7389Z" fill="black"/>
</svg>
