<svg width="24" height="24" viewBox="0 0 24 24" fill="none" xmlns="http://www.w3.org/2000/svg">
<path d="M13.4875 6.07247C13.4875 6.2033 13.9144 7.8168 13.9606 7.85459C13.9755 7.87639 15.0054 8.10316 16.2323 8.35899C17.4591 8.61482 18.5576 8.87647 18.6547 8.9288C18.7872 9.0026 18.8982 9.10818 18.977 9.23551C19.0979 9.43902 19.1129 9.65851 19.1129 12.0104C19.1129 14.3624 19.0979 14.5819 18.977 14.7868C18.8957 14.9122 18.7853 15.0173 18.6547 15.0935C18.5576 15.1444 17.4696 15.4002 16.2323 15.6633C14.995 15.9264 13.983 16.1503 13.9606 16.1721C13.9144 16.2172 13.495 17.8234 13.4875 17.9542C13.4875 18.0356 14.0278 18.0502 16.3979 18.0283C19.6681 17.9993 19.7054 17.992 20.5367 17.4469C21.1348 17.0457 21.5868 16.4701 21.8278 15.8029C21.9994 15.313 21.9994 15.2694 21.9994 12.0235C21.9994 8.77763 21.9994 8.72966 21.8278 8.24416C21.5876 7.57695 21.1354 7.00161 20.5367 6.60159C19.7054 6.05358 19.6681 6.04631 16.3979 6.02014C14.0278 5.9838 13.4875 5.99398 13.4875 6.07247Z" fill="#373C41"/>
<path d="M10.512 17.965C10.512 17.8342 10.0851 16.2207 10.0388 16.1829C10.0239 16.1611 8.99405 15.9343 7.76719 15.6785C6.54032 15.4226 5.44181 15.161 5.3448 15.1087C5.21225 15.0349 5.10127 14.9293 5.02241 14.8019C4.90152 14.5984 4.88659 14.379 4.88659 12.027C4.88659 9.6751 4.90152 9.4556 5.02241 9.25064C5.10371 9.12521 5.21414 9.02015 5.3448 8.94393C5.44181 8.89306 6.52987 8.63722 7.76719 8.37412C9.0045 8.11102 10.0164 7.88717 10.0388 7.86536C10.0851 7.8203 10.5045 6.21407 10.512 6.08325C10.512 6.00185 9.97166 5.98731 7.60152 6.00911C4.33137 6.03819 4.29405 6.04545 3.46271 6.59055C2.86464 6.99177 2.41262 7.56737 2.17166 8.23458C2.00002 8.72444 2.00002 8.76805 2.00002 12.0139C2.00002 15.2598 2.00002 15.3078 2.17166 15.7933C2.41189 16.4605 2.8641 17.0359 3.46271 17.4359C4.29405 17.9839 4.33137 17.9912 7.60152 18.0173C9.97166 18.0537 10.512 18.0435 10.512 17.965Z" fill="#373C41"/>
<rect x="9.91669" y="11.6812" width="4.16667" height="0.811594" fill="#373C41"/>
</svg>
