<svg width="24" height="24" viewBox="0 0 24 24" fill="none" xmlns="http://www.w3.org/2000/svg">
<path d="M11.1054 18.4308C13.6341 17.9841 15.7227 17.6144 15.7467 17.6094L15.7903 17.6001L13.403 14.7604C12.0899 13.1986 11.0156 11.9147 11.0156 11.9073C11.0156 11.8933 13.4807 5.10489 13.4946 5.08074C13.4992 5.07266 15.1768 7.96898 17.5612 12.1016C19.7935 15.9706 21.6339 19.1607 21.651 19.1906L21.6821 19.2449L14.095 19.2439L6.50781 19.243L11.1054 18.4308V18.4308Z" fill="#0089D6"/>
<path d="M2 17.5648C2 17.5608 3.1249 15.6081 4.49978 13.2254L6.99956 8.89324L9.91277 6.44848C11.515 5.10385 12.8303 4.00206 12.8356 4.00006C12.8408 3.99805 12.8198 4.0511 12.7887 4.11794C12.7577 4.18479 11.3342 7.23805 9.62539 10.903L6.51849 17.5664L4.25924 17.5693C3.01666 17.5708 2 17.5688 2 17.5648L2 17.5648Z" fill="#0089D6"/>
</svg>
