<svg width="24" height="24" viewBox="0 0 24 24" fill="none" xmlns="http://www.w3.org/2000/svg">
<path d="M21 11.7128C21 11.0887 20.9494 10.4612 20.8414 9.84718H12.1813V13.3827H17.1406C16.9348 14.523 16.2735 15.5317 15.3053 16.1727V18.4668H18.264C20.0014 16.8677 21 14.5062 21 11.7128Z" fill="#4285F4"/>
<path d="M12.1814 20.6833C14.6576 20.6833 16.7459 19.8702 18.2674 18.4668L15.3088 16.1727C14.4856 16.7327 13.4229 17.0499 12.1848 17.0499C9.7895 17.0499 7.75858 15.4339 7.02988 13.2613H3.97675V15.6262C5.53536 18.7266 8.70994 20.6833 12.1814 20.6833Z" fill="#34A853"/>
<path d="M7.02642 13.2613C6.64183 12.121 6.64183 10.8863 7.02642 9.74597V7.38106H3.97666C2.67445 9.97537 2.67445 13.0319 3.97666 15.6262L7.02642 13.2613Z" fill="#FBBC04"/>
<path d="M12.1814 5.95401C13.4904 5.93377 14.7555 6.42632 15.7035 7.33045L18.3248 4.70915C16.665 3.15053 14.462 2.29363 12.1814 2.32062C8.70994 2.32062 5.53536 4.27732 3.97675 7.38106L7.0265 9.74597C7.75183 7.56998 9.78613 5.95401 12.1814 5.95401Z" fill="#EA4335"/>
</svg>
