<svg width="24" height="24" viewBox="0 0 24 24" fill="none" xmlns="http://www.w3.org/2000/svg">
<path fill-rule="evenodd" clip-rule="evenodd" d="M10.5119 17.965C10.5119 17.8341 10.0851 16.2206 10.0388 16.1829C10.0239 16.1611 8.99402 15.9343 7.76716 15.6785C6.54029 15.4226 5.44179 15.161 5.34477 15.1086C5.21222 15.0348 5.10124 14.9293 5.02238 14.8019C4.90149 14.5984 4.88656 14.3789 4.88656 12.027C4.88656 9.67509 4.90149 9.4556 5.02238 9.25064C5.10368 9.12521 5.21411 9.02015 5.34477 8.94393C5.44179 8.89305 6.52984 8.63722 7.76716 8.37412C9.00447 8.11102 10.0164 7.88716 10.0388 7.86536C10.0851 7.8203 10.5045 6.21407 10.5119 6.08325C10.5119 6.00185 9.97163 5.98731 7.60148 6.00911C4.33134 6.03818 4.29403 6.04545 3.46268 6.59055C2.86461 6.99177 2.4126 7.56736 2.17164 8.23457C2 8.72444 2 8.76804 2 12.0139C2 15.2598 2 15.3078 2.17164 15.7933C2.41186 16.4605 2.86407 17.0358 3.46268 17.4359C4.29403 17.9839 4.33134 17.9911 7.60148 18.0173C9.97163 18.0536 10.5119 18.0435 10.5119 17.965ZM13.4875 6.07247C13.4875 6.2033 13.9143 7.81679 13.9606 7.85459C13.9755 7.87639 15.0054 8.10315 16.2323 8.35899C17.4591 8.61482 18.5576 8.87647 18.6546 8.9288C18.7872 9.0026 18.8982 9.10818 18.977 9.23551C19.0979 9.43901 19.1129 9.6585 19.1129 12.0104C19.1129 14.3624 19.0979 14.5818 18.977 14.7868C18.8957 14.9122 18.7853 15.0173 18.6546 15.0935C18.5576 15.1444 17.4696 15.4002 16.2323 15.6633C14.9949 15.9264 13.983 16.1503 13.9606 16.1721C13.9143 16.2171 13.4949 17.8234 13.4875 17.9542C13.4875 18.0356 14.0278 18.0501 16.3979 18.0283C19.6681 17.9993 19.7054 17.992 20.5367 17.4469C21.1348 17.0457 21.5868 16.4701 21.8278 15.8029C21.9994 15.313 21.9994 15.2694 21.9994 12.0235C21.9994 8.77762 21.9994 8.72965 21.8278 8.24415C21.5875 7.57694 21.1353 7.00161 20.5367 6.60159C19.7054 6.05358 19.6681 6.04631 16.3979 6.02015C14.0278 5.98381 13.4875 5.99398 13.4875 6.07247ZM14.0833 11.6812H9.91666V12.4927H14.0833V11.6812Z" fill="black"/>
</svg>
