<svg width="24" height="24" viewBox="0 0 24 24" fill="none" xmlns="http://www.w3.org/2000/svg">
<path fill-rule="evenodd" clip-rule="evenodd" d="M14.7521 8.40598H14.7029C12.9173 6.96939 10.3145 7.16617 8.76786 8.8547C8.75296 8.85174 8.7358 8.85697 8.71751 8.86782C10.0578 9.12825 11.2717 9.8668 12.1166 10.9649L9.59743 13.4692C9.19977 12.5942 8.26856 12.0855 7.31237 12.2209C6.35617 12.3562 5.60483 13.1031 5.46867 14.0537C5.33251 15.0042 5.84425 15.9299 6.72443 16.3252L6.72252 16.3271C7.00282 16.4537 7.30711 16.5192 7.615 16.5192H11.958V16.5497L11.9641 16.5435H16.3072C17.5065 16.5435 18.4787 15.577 18.4787 14.3848C18.4787 13.1926 17.5065 12.2261 16.3072 12.2261V11.7956C16.332 10.4891 15.7594 9.24281 14.7521 8.40598ZM4.21132 18.8235L4.20522 18.8477C5.18694 19.5846 6.38484 19.9809 7.615 19.9756H11.9397L11.9641 19.9998H16.3072C18.7973 20.0191 21.0064 18.415 21.7452 16.051C22.4841 13.6869 21.5784 11.1208 19.5157 9.73394C19.1161 8.27115 18.2957 6.95611 17.1551 5.95017L17.1198 5.98525L17.1246 5.94411C15.0999 4.16761 12.2959 3.55634 9.70921 4.32752C7.12249 5.0987 5.11971 7.14301 4.41262 9.73394C4.45288 9.71753 4.49406 9.70398 4.53583 9.69331C3.50961 10.3672 2.7073 11.3717 2.29571 12.5867C1.5258 14.8595 2.29293 17.3675 4.20522 18.8295L4.21132 18.8235Z" fill="black"/>
</svg>
