<svg width="24" height="24" viewBox="0 0 24 24" fill="none" xmlns="http://www.w3.org/2000/svg">
<path fill-rule="evenodd" clip-rule="evenodd" d="M18.8245 12.535C18.4786 12.535 18.1327 12.4933 17.8001 12.4099C17.4675 12.3265 17.2081 12.2361 17.0352 12.1318C16.9287 12.0692 16.8556 11.9997 16.829 11.9372C16.8024 11.8746 16.7891 11.8051 16.7891 11.7425V11.3879C16.7891 11.2419 16.8423 11.1724 16.942 11.1724C16.982 11.1724 17.0219 11.1794 17.0618 11.1933C17.0875 11.2022 17.1216 11.217 17.1605 11.2338L17.1605 11.2339C17.1818 11.2431 17.2045 11.2529 17.2281 11.2628C17.4542 11.3671 17.7004 11.4505 17.9598 11.5061C18.2258 11.5617 18.4853 11.5895 18.7513 11.5895C19.1704 11.5895 19.4963 11.5131 19.7225 11.3601C19.9487 11.2072 20.0684 10.9847 20.0684 10.6997C20.0684 10.505 20.0085 10.3451 19.8888 10.213C19.7691 10.0809 19.5429 9.96274 19.217 9.8515L18.2525 9.53865C17.7669 9.37875 17.4077 9.14238 17.1882 8.82953C16.9687 8.52364 16.8556 8.18298 16.8556 7.82147C16.8556 7.52948 16.9154 7.27225 17.0352 7.04978C17.1549 6.82731 17.3146 6.63265 17.5141 6.4797C17.7137 6.3198 17.9398 6.20161 18.2059 6.11819C18.472 6.03476 18.7513 6 19.044 6C19.1904 6 19.3433 6.00695 19.4897 6.02781C19.6427 6.04866 19.7824 6.07647 19.922 6.10428L19.9221 6.10428C20.0551 6.13904 20.1815 6.1738 20.3012 6.21552C20.4209 6.25723 20.5141 6.29894 20.5806 6.34066C20.6737 6.39627 20.7402 6.45189 20.7801 6.51446C20.82 6.57008 20.84 6.64655 20.84 6.74388V7.07063C20.84 7.21663 20.7868 7.2931 20.687 7.2931C20.6338 7.2931 20.5473 7.26529 20.4342 7.20968C20.0551 7.02892 19.6294 6.93854 19.1571 6.93854C18.7779 6.93854 18.4786 7.00111 18.2724 7.1332C18.0662 7.26529 17.9598 7.46691 17.9598 7.75195C17.9598 7.94661 18.0263 8.11346 18.1593 8.24555C18.2924 8.37764 18.5385 8.50973 18.891 8.62792L19.8356 8.94077C20.3145 9.10067 20.6604 9.32314 20.8666 9.60818C21.0728 9.89321 21.1726 10.22 21.1726 10.5815C21.1726 10.8804 21.1127 11.1516 20.9996 11.3879C20.8799 11.6243 20.7203 11.8329 20.5141 11.9997C20.3079 12.1735 20.0617 12.2987 19.7757 12.389C19.4764 12.4864 19.1637 12.535 18.8245 12.535ZM7.6362 10.5398C7.6362 10.797 7.6628 11.0056 7.70937 11.1585C7.76258 11.3115 7.8291 11.4783 7.92222 11.6591C7.95548 11.7147 7.96878 11.7703 7.96878 11.819C7.96878 11.8885 7.92887 11.958 7.8424 12.0275L7.42334 12.3195C7.36347 12.3612 7.30361 12.3821 7.25039 12.3821C7.18387 12.3821 7.11736 12.3473 7.05084 12.2848C6.95771 12.1805 6.87789 12.0692 6.81137 11.958C6.74486 11.8398 6.67834 11.7077 6.60517 11.5478C6.08633 12.1874 5.43445 12.5072 4.64954 12.5072C4.09079 12.5072 3.64512 12.3404 3.31918 12.0067C2.99325 11.673 2.82695 11.228 2.82695 10.6719C2.82695 10.0809 3.02651 9.60122 3.43226 9.23971C3.83802 8.8782 4.37682 8.69744 5.06195 8.69744C5.28811 8.69744 5.52093 8.7183 5.76704 8.75306C6.01316 8.78782 6.26593 8.84344 6.532 8.90601V8.3985C6.532 7.87013 6.42557 7.50167 6.21936 7.28615C6.00651 7.07063 5.64731 6.96635 5.13512 6.96635C4.90231 6.96635 4.66285 6.99416 4.41673 7.05673C4.17061 7.1193 3.93115 7.19577 3.69834 7.2931C3.59191 7.34177 3.51209 7.36958 3.46552 7.38348C3.41896 7.39739 3.3857 7.40434 3.35909 7.40434C3.26597 7.40434 3.21941 7.33482 3.21941 7.18882V6.84816C3.21941 6.73693 3.23271 6.6535 3.26597 6.60484C3.29923 6.55617 3.35909 6.50751 3.45222 6.45884C3.68503 6.3337 3.96441 6.22942 4.29035 6.146C4.61628 6.05562 4.96218 6.0139 5.32802 6.0139C6.11959 6.0139 6.69829 6.20161 7.07079 6.57703C7.43664 6.95245 7.62289 7.52253 7.62289 8.28726V10.5398H7.6362ZM4.93557 11.5965C5.15508 11.5965 5.38124 11.5548 5.6207 11.4714C5.86017 11.3879 6.07303 11.235 6.25262 11.0264C6.35905 10.8943 6.43887 10.7483 6.47878 10.5815C6.51869 10.4146 6.5453 10.213 6.5453 9.97664V9.68465C6.3524 9.63598 6.14619 9.59427 5.93334 9.56646C5.72048 9.53865 5.51427 9.52475 5.30807 9.52475C4.8624 9.52475 4.53646 9.61513 4.31695 9.80284C4.09744 9.99055 3.99101 10.2547 3.99101 10.6023C3.99101 10.9291 4.07084 11.1724 4.23713 11.3393C4.39677 11.5131 4.62959 11.5965 4.93557 11.5965ZM10.0242 12.2778C10.0774 12.3265 10.1572 12.3473 10.277 12.3473H10.849C10.9687 12.3473 11.0619 12.3265 11.1151 12.2778C11.1683 12.2291 11.2082 12.1388 11.2415 11.9997L12.2658 7.52253L13.2969 12.0067C13.3235 12.1457 13.37 12.2361 13.4233 12.2848C13.4765 12.3334 13.5629 12.3543 13.6893 12.3543H14.2614C14.3745 12.3543 14.4609 12.3265 14.5141 12.2848C14.5674 12.243 14.6139 12.1527 14.6538 12.0136L16.2569 6.6396C16.2835 6.56313 16.2968 6.50751 16.3035 6.4658L16.3064 6.44796C16.3119 6.41394 16.3168 6.38425 16.3168 6.35456C16.3168 6.23637 16.2569 6.18076 16.1505 6.18076H15.5319C15.4121 6.18076 15.3257 6.20857 15.2725 6.25028C15.2259 6.29199 15.1793 6.38237 15.1394 6.52141L13.9887 11.1794L12.9377 6.52141C12.9111 6.38932 12.8645 6.29199 12.8113 6.25028C12.7581 6.20161 12.6716 6.18076 12.5452 6.18076H12.0131C11.8933 6.18076 11.8002 6.20857 11.747 6.25028C11.6938 6.29199 11.6539 6.38237 11.6206 6.52141L10.5829 11.1237L9.46544 6.52141C9.42553 6.38932 9.38562 6.29199 9.3324 6.25028C9.28584 6.20161 9.19937 6.18076 9.07298 6.18076H8.42111C8.31468 6.18076 8.26146 6.24333 8.26146 6.35456C8.26146 6.40323 8.28142 6.4936 8.32133 6.63265L9.8845 12.0067C9.92441 12.1388 9.97097 12.2361 10.0242 12.2778ZM20.993 14.8293C20.7136 14.4538 19.1438 14.6485 18.432 14.7389C18.2192 14.7667 18.1859 14.572 18.3788 14.426C19.6294 13.5083 21.6848 13.7725 21.9242 14.0784C22.1637 14.3913 21.8577 16.5395 20.687 17.5684C20.5074 17.7283 20.3345 17.6449 20.4143 17.4363C20.6804 16.7481 21.2724 15.1977 20.993 14.8293ZM20.0817 15.9138C17.8933 17.6032 14.7137 18.5 11.9798 18.5C8.14838 18.5 4.6961 17.0192 2.0886 14.5581C1.8824 14.3635 2.06865 14.0993 2.31476 14.2522C5.13512 15.9625 8.61401 16.9983 12.2126 16.9983C14.6405 16.9983 17.3079 16.47 19.7624 15.3854C20.1283 15.2116 20.4409 15.6357 20.0817 15.9138Z" fill="black"/>
</svg>
