<svg width="24" height="24" viewBox="0 0 24 24" fill="none" xmlns="http://www.w3.org/2000/svg">
<path fill-rule="evenodd" clip-rule="evenodd" d="M15.7035 7.33045C14.7555 6.42632 13.4904 5.93377 12.1814 5.95401C9.78613 5.95401 7.75183 7.56998 7.0265 9.74597L7.02642 9.74591V9.74597C6.64183 10.8863 6.64183 12.121 7.02642 13.2613L7.02988 13.2613C7.75858 15.4339 9.7895 17.0499 12.1848 17.0499C13.4212 17.0499 14.4826 16.7336 15.3053 16.1751V16.1727C16.2735 15.5317 16.9348 14.523 17.1406 13.3827H12.1813V9.84718H20.8414C20.9494 10.4612 21 11.0887 21 11.7128C21 14.5053 20.002 16.8663 18.2656 18.4653L18.2674 18.4668C16.7459 19.8702 14.6576 20.6833 12.1814 20.6833C8.70994 20.6833 5.53536 18.7266 3.97675 15.6262L3.97666 15.6262C2.67445 13.0319 2.67445 9.97537 3.97666 7.38106L3.97675 7.38106C5.53536 4.27732 8.70994 2.32062 12.1814 2.32062C14.462 2.29363 16.665 3.15053 18.3248 4.70915L15.7035 7.33045Z" fill="black"/>
</svg>
