<svg width="24" height="24" viewBox="0 0 24 24" fill="none" xmlns="http://www.w3.org/2000/svg">
<path d="M19.8049 8.56225L17.9834 3H12.0985L13.9175 8.56225H19.8049ZM12.0985 3H6.21449L4.39642 8.56225H10.2805L12.0985 3ZM4.39642 8.56225C3.86788 10.179 3.86786 11.9205 4.39636 13.5373C4.92487 15.154 5.95476 16.563 7.33845 17.5622L9.15652 12L4.39642 8.56225ZM19.8015 8.56225L15.0381 12L16.8561 17.5622C18.241 16.5639 19.2722 15.1553 19.802 13.5385C20.3317 11.9217 20.3327 10.1797 19.8049 8.56225H19.8015ZM7.33845 17.5622L12.0994 21L16.8595 17.5622L12.0985 14.1245L7.33845 17.5622Z" fill="black"/>
</svg>
