<svg width="24" height="24" viewBox="0 0 24 24" fill="none" xmlns="http://www.w3.org/2000/svg">
<path fill-rule="evenodd" clip-rule="evenodd" d="M4.54016 13.6823C3.14307 16.183 2 18.2324 2 18.2366C2 18.2408 3.03308 18.2429 4.29573 18.2413L6.59147 18.2383L9.74855 11.2448C11.4849 7.39841 12.9314 4.19394 12.963 4.12378C12.9945 4.05363 13.0159 3.99795 13.0106 4.00006C13.0052 4.00217 11.6687 5.15852 10.0406 6.56974L7.08031 9.13559L4.54016 13.6823ZM15.9687 18.2834C15.9443 18.2887 13.822 18.6767 11.2525 19.1455L6.58061 19.9979L14.2903 19.9989L22 19.9999L21.9684 19.9429C21.951 19.9115 20.0809 16.5635 17.8125 12.5028C15.3896 8.16555 13.685 5.12579 13.6802 5.13426C13.6662 5.15961 11.1612 12.2842 11.1612 12.2989C11.1612 12.3067 12.2529 13.6542 13.5871 15.2934L16.013 18.2737L15.9687 18.2834Z" fill="black"/>
</svg>
