<svg width="24" height="24" viewBox="0 0 24 24" fill="none" xmlns="http://www.w3.org/2000/svg">
<path d="M4.09626 8.66279C3.84484 8.09698 3.22341 7.84068 2.64316 8.10536C2.06221 8.3704 1.84843 9.03173 2.11086 9.59791L4.54724 15.0347C4.9304 15.8867 5.33416 16.3333 6.09195 16.3333C6.9016 16.3333 7.25457 15.847 7.63738 15.0347C7.63738 15.0347 9.76233 10.2844 9.78364 10.2348C9.8053 10.1845 9.87348 10.031 10.0897 10.0325C10.2726 10.0336 10.4264 10.1834 10.4264 10.3847V15.03C10.4264 15.746 10.8131 16.3333 11.5574 16.3333C12.301 16.3333 12.703 15.746 12.703 15.03V11.2286C12.703 10.4955 13.2147 10.0197 13.9121 10.0197C14.6095 10.0197 15.0737 10.5126 15.0737 11.2286V15.03C15.0737 15.746 15.4618 16.3333 16.2047 16.3333C16.9483 16.3333 17.3524 15.746 17.3524 15.03V11.2286C17.3524 10.4955 17.8619 10.0197 18.5597 10.0197C19.2561 10.0197 19.722 10.5126 19.722 11.2286V15.03C19.722 15.746 20.1098 16.3333 20.8534 16.3333C21.5966 16.3333 22 15.746 22 15.03V10.7036C22 9.11376 20.7546 8 19.2561 8C17.7593 8 16.8218 9.06309 16.8218 9.06309C16.3236 8.39993 15.6369 8.00146 14.4746 8.00146C13.2481 8.00146 12.1746 9.06309 12.1746 9.06309C11.676 8.39993 10.8273 8.00146 10.1245 8.00146C9.03756 8.00146 8.1743 8.49217 7.64767 9.72843L6.09195 13.4933L4.09626 8.66279Z" fill="#696566"/>
</svg>
