<svg width="24" height="24" viewBox="0 0 24 24" fill="none" xmlns="http://www.w3.org/2000/svg">
<path d="M21.9509 13.2924L20.8319 9.92855L18.6177 3.2564C18.5654 3.10375 18.4193 3.00086 18.2547 3.00086C18.0901 3.00086 17.944 3.10375 17.8917 3.2564L15.6775 9.9245H8.32068L6.10647 3.2564C6.05453 3.10359 5.90839 3.00048 5.74375 3.00048C5.57912 3.00048 5.43298 3.10359 5.38103 3.2564L3.17038 9.9245L2.05145 13.2924C1.94947 13.5991 2.06074 13.9352 2.32719 14.1253L12 21L21.671 14.1253C21.9386 13.9361 22.0516 13.6 21.9509 13.2924Z" fill="#FC6D26"/>
<path d="M12 20.9948L15.6781 9.92392H8.32367L12 20.9948Z" fill="#E24329"/>
<path d="M11.9999 20.9948L8.32066 9.92392H3.17273L11.9999 20.9948Z" fill="#FC6D26"/>
<path d="M3.16861 9.92739L2.04968 13.2913C1.9477 13.598 2.05897 13.9341 2.32542 14.1241L12 21L3.16861 9.92739Z" fill="#FCA326"/>
<path d="M3.17041 9.92739H8.32485L6.1065 3.25987C6.05423 3.10722 5.90807 3.00434 5.74349 3.00434C5.57891 3.00434 5.43274 3.10722 5.38047 3.25987L3.17041 9.92739Z" fill="#E24329"/>
<path d="M12 20.9948L15.6781 9.92392H20.8343L12 20.9948Z" fill="#FC6D26"/>
<path d="M20.8308 9.92739L21.9497 13.2913C22.0523 13.598 21.9409 13.9344 21.674 14.1241L12 20.9948L20.8284 9.92739L20.8308 9.92739Z" fill="#FCA326"/>
<path d="M20.8331 9.92739H15.6793L17.8935 3.25987C17.9454 3.10706 18.0915 3.00395 18.2562 3.00395C18.4208 3.00395 18.567 3.10706 18.6189 3.25987L20.8331 9.92739Z" fill="#E24329"/>
</svg>
