<svg width="24" height="24" viewBox="0 0 24 24" fill="none" xmlns="http://www.w3.org/2000/svg">
<path fill-rule="evenodd" clip-rule="evenodd" d="M12 22C11.7511 22 11.5043 21.9909 11.26 21.973C10.71 22.6024 9.90144 23 9 23C7.34339 23 6.00039 21.6573 6 20.0007C3.57111 18.1763 2 15.2716 2 12C2 10.2504 2.44933 8.60572 3.23888 7.17509C3.0851 6.81421 3 6.41704 3 6C3 4.34315 4.34315 3 6 3C6.41704 3 6.81421 3.0851 7.17509 3.23888C8.60572 2.44933 10.2504 2 12 2C13.1458 2 14.2466 2.19271 15.2718 2.54749C15.7603 2.2026 16.3565 2 17 2C18.6569 2 20 3.34315 20 5C20 5.29254 19.9581 5.57529 19.8801 5.8426C21.2083 7.54004 22 9.67756 22 12C22 12.5619 21.9537 13.113 21.8646 13.6497C22.5564 14.1992 23 15.0478 23 16C23 17.6569 21.6569 19 20 19C19.7361 19 19.4801 18.9659 19.2363 18.9019C17.4152 20.8107 14.8465 22 12 22ZM17.5627 17.7495C16.123 19.1427 14.1616 20 12 20C12 19.2195 11.7019 18.5086 11.2134 17.9749L13.9254 12.8899L17.1165 15.1693C17.0406 15.4331 17 15.7118 17 16C17 16.6529 17.2086 17.257 17.5627 17.7495ZM16.5511 7.96664L14.8746 11.1101L18.2794 13.5421C18.7508 13.2116 19.3216 13.0131 19.938 13.0006C19.9789 12.6728 20 12.3389 20 12C20 10.34 19.4944 8.79803 18.6288 7.51978C18.1597 7.82359 17.6005 8 17 8C16.8474 8 16.6976 7.98861 16.5511 7.96664ZM8.88348 6.83078L13.2332 9.93771L14.7866 7.0251C14.2981 6.49144 14 5.78053 14 5C14 4.75011 14.0306 4.50735 14.0881 4.27526C13.4225 4.09575 12.7224 4 12 4C10.8264 4 9.7118 4.25272 8.70768 4.7067C8.89507 5.09831 9 5.5369 9 6C9 6.28823 8.95935 6.56696 8.88348 6.83078ZM12.284 11.7175L7.72053 8.45791C7.67159 8.49223 7.62157 8.52514 7.57053 8.55655L9.38509 17.0245C9.40642 17.0272 9.42769 17.0302 9.44888 17.0334L12.284 11.7175ZM5.61491 8.97551L7.42947 17.4435C7.17093 17.6026 6.93837 17.7999 6.73962 18.0275C5.06067 16.561 4 14.4043 4 12C4 10.8264 4.25272 9.7118 4.7067 8.70768C4.98798 8.84227 5.29349 8.93433 5.61491 8.97551ZM19 5C19 6.10457 18.1046 7 17 7C15.8954 7 15 6.10457 15 5C15 3.89543 15.8954 3 17 3C18.1046 3 19 3.89543 19 5ZM8 6C8 7.10457 7.10457 8 6 8C4.89543 8 4 7.10457 4 6C4 4.89543 4.89543 4 6 4C7.10457 4 8 4.89543 8 6ZM20 18C21.1046 18 22 17.1046 22 16C22 14.8954 21.1046 14 20 14C18.8954 14 18 14.8954 18 16C18 17.1046 18.8954 18 20 18ZM11 20C11 21.1046 10.1046 22 9 22C7.89543 22 7 21.1046 7 20C7 18.8954 7.89543 18 9 18C10.1046 18 11 18.8954 11 20Z" fill="black"/>
</svg>
