<svg width="24" height="24" viewBox="0 0 24 24" fill="none" xmlns="http://www.w3.org/2000/svg">
<path fill-rule="evenodd" clip-rule="evenodd" d="M10 4V8H11H13H14V4H10ZM13 10H14.5C15.3284 10 16 9.32843 16 8.5V3.5C16 2.67157 15.3284 2 14.5 2H9.5C8.67157 2 8 2.67157 8 3.5V8.5C8 9.32843 8.67157 10 9.5 10H11V11H3C2.44772 11 2 11.4477 2 12C2 12.5523 2.44772 13 3 13H6V14H4.5C3.67157 14 3 14.6716 3 15.5V20.5C3 21.3284 3.67157 22 4.5 22H9.5C10.3284 22 11 21.3284 11 20.5V15.5C11 14.6716 10.3284 14 9.5 14H8V13H16V14H14.5C13.6716 14 13 14.6716 13 15.5V20.5C13 21.3284 13.6716 22 14.5 22H19.5C20.3284 22 21 21.3284 21 20.5V15.5C21 14.6716 20.3284 14 19.5 14H18V13H21C21.5523 13 22 12.5523 22 12C22 11.4477 21.5523 11 21 11H13V10ZM5 20V16H9V20H5ZM15 16V20H19V16H15Z" fill="black"/>
</svg>
