<svg width="24" height="24" viewBox="0 0 24 24" fill="none" xmlns="http://www.w3.org/2000/svg">
<path fill-rule="evenodd" clip-rule="evenodd" d="M20 18.19L5.27 2.99L4 4.26L6.8 7.06V7.07C6.28 8.06 6 9.23 6 10.49V15.49L4 17.49V18.49H17.73L19.73 20.49L21 19.22L20 18.19ZM12 21.5C13.11 21.5 14 20.61 14 19.5H10C10 20.61 10.89 21.5 12 21.5ZM18 14.18V10.5C18 7.42 16.36 4.86 13.5 4.18V3.5C13.5 2.67 12.83 2 12 2C11.17 2 10.5 2.67 10.5 3.5V4.18C10.35 4.21 10.21 4.26 10.08 4.3C9.98 4.33 9.88 4.37 9.78 4.41H9.77C9.76 4.41 9.76 4.41 9.75 4.42C9.52 4.51 9.29 4.62 9.07 4.73C9.07 4.73 9.06 4.73 9.06 4.74L18 14.18Z" fill="black"/>
</svg>
