<svg width="24" height="24" viewBox="0 0 24 24" fill="none" xmlns="http://www.w3.org/2000/svg">
<path fill-rule="evenodd" clip-rule="evenodd" d="M3 4C3 2.9 3.9 2 5 2H19C20.1 2 21 2.9 21 4V10.0179V10.9702V20C21 21.1 20.1 22 19 22H5C3.9 22 3 21.1 3 20V4ZM5 4V20H19V16.0004V9.99173V4H5ZM10.9958 11.0063V13.0063H13.9958V11.0063H10.9958ZM15 15V17H11V15H15ZM11 9H17V7H11V9ZM7 12.0063C7 11.4575 7.44905 11.0084 7.99789 11.0084C8.54674 11.0084 8.99579 11.4575 8.99579 12.0063C8.99579 12.5552 8.54674 13.0042 7.99789 13.0042C7.44905 13.0042 7 12.5552 7 12.0063ZM7.99789 15C7.44905 15 7 15.4491 7 15.9979C7 16.5467 7.44905 16.9958 7.99789 16.9958C8.54674 16.9958 8.99579 16.5467 8.99579 15.9979C8.99579 15.4491 8.54674 15 7.99789 15ZM7 7.99789C7 7.44905 7.44905 7 7.99789 7C8.54674 7 8.99579 7.44905 8.99579 7.99789C8.99579 8.54674 8.54674 8.99579 7.99789 8.99579C7.44905 8.99579 7 8.54674 7 7.99789Z" fill="black"/>
</svg>
