<svg width="24" height="24" viewBox="0 0 24 24" fill="none" xmlns="http://www.w3.org/2000/svg">
<path d="M19 2C20.05 2 20.9178 2.82004 20.9945 3.85131L21 4V20C21 21.05 20.18 21.9178 19.1487 21.9945L19 22H5C3.95 22 3.08223 21.18 3.00551 20.1487L3 20V4C3 2.95 3.82004 2.08223 4.85131 2.00551L5 2H19ZM19 4H5V20H19V4ZM7.95197 15.0042C8.50082 15.0042 8.94987 15.4533 8.94987 16.0021C8.94987 16.5509 8.50082 17 7.95197 17C7.40313 17 6.95408 16.5509 6.95408 16.0021C6.95408 15.4533 7.40313 15.0042 7.95197 15.0042ZM15.944 15V17H9.94401V15H15.944ZM13.944 11V13H9.94401V11H13.944ZM7.95197 11C8.50082 11 8.94987 11.4491 8.94987 11.9979C8.94987 12.5467 8.50082 12.9958 7.95197 12.9958C7.40313 12.9958 6.95408 12.5467 6.95408 11.9979C6.95408 11.4491 7.40313 11 7.95197 11ZM16.944 7V9H9.94401V7H16.944ZM7.95197 7.00421C8.50082 7.00421 8.94987 7.45326 8.94987 8.00211C8.94987 8.55095 8.50082 9 7.95197 9C7.40313 9 6.95408 8.55095 6.95408 8.00211C6.95408 7.45326 7.40313 7.00421 7.95197 7.00421Z" fill="black"/>
</svg>
