<svg width="24" height="24" viewBox="0 0 24 24" fill="none" xmlns="http://www.w3.org/2000/svg">
<path d="M19.0447 2C20.0947 2 20.9625 2.82004 21.0392 3.85131L21.0447 4V20C21.0447 21.05 20.2247 21.9178 19.1934 21.9945L19.0447 22H5.04472C3.99472 22 3.12695 21.18 3.05023 20.1487L3.04472 20V4C3.04472 2.95 3.86476 2.08223 4.89602 2.00551L5.04472 2H19.0447ZM19.0447 4H5.04472V20H19.0447V4ZM7.99669 15.0042C8.54553 15.0042 9 15.4533 9 16.0021C9 16.5509 8.54553 17 7.99669 17C7.44785 17 6.9988 16.5509 6.9988 16.0021C6.9988 15.4533 7.44785 15.0042 7.99669 15.0042ZM15.9887 15V17H9.98873V15H15.9887ZM15 11V13H10V11H15ZM7.99669 11C8.54553 11 9 11.4491 9 11.9979C9 12.5467 8.54553 12.9958 7.99669 12.9958C7.44785 12.9958 6.9988 12.5467 6.9988 11.9979C6.9988 11.4491 7.44785 11 7.99669 11ZM17 7.00421L16.9887 9H10V7.00421H17ZM7.99669 7.00421C8.54553 7.00421 8.99459 7.45326 8.99459 8.00211C8.99459 8.55095 8.54553 9 7.99669 9C7.44785 9 6.9988 8.55095 6.9988 8.00211C6.9988 7.45326 7.44785 7.00421 7.99669 7.00421Z" fill="black"/>
</svg>
