<svg xmlns="http://www.w3.org/2000/svg" xmlns:xlink="http://www.w3.org/1999/xlink" width="24" height="24" viewBox="0 0 24 24">
  <path d="M19,2 C20.05,2 20.9177686,2.82004132 20.9944872,3.85130541 L21,4 L21,20 C21,21.05 20.1799587,21.9177686 19.1486946,21.9944872 L19,22 L5,22 C3.95,22 3.0822314,21.1799587 3.00551277,20.1486946 L3,20 L3,4 C3,2.95 3.82004132,2.0822314 4.85130541,2.00551277 L5,2 L19,2 Z M19,4 L5,4 L5,20 L19,20 L19,4 Z M7.95197408,15.0042105 C8.50081619,15.0042105 8.94986882,15.4532632 8.94986882,16.0021053 C8.94986882,16.5509474 8.50081619,17 7.95197408,17 C7.40313198,17 6.95407935,16.5509474 6.95407935,16.0021053 C6.95407935,15.4532632 7.40313198,15.0042105 7.95197408,15.0042105 Z M15.9440125,15 L15.9440125,17 L9.94401247,17 L9.94401247,15 L15.9440125,15 Z M13.9440125,11 L13.9440125,13 L9.94401247,13 L9.94401247,11 L13.9440125,11 Z M7.95197408,11 C8.50081619,11 8.94986882,11.4490526 8.94986882,11.9978947 C8.94986882,12.5467368 8.50081619,12.9957895 7.95197408,12.9957895 C7.40313198,12.9957895 6.95407935,12.5467368 6.95407935,11.9978947 C6.95407935,11.4490526 7.40313198,11 7.95197408,11 Z M16.9440125,7 L16.9440125,9 L9.94401247,9 L9.94401247,7 L16.9440125,7 Z M7.95197408,7.00421053 C8.50081619,7.00421053 8.94986882,7.45326316 8.94986882,8.00210526 C8.94986882,8.55094737 8.50081619,9 7.95197408,9 C7.40313198,9 6.95407935,8.55094737 6.95407935,8.00210526 C6.95407935,7.45326316 7.40313198,7.00421053 7.95197408,7.00421053 Z" fill="currentColor" />
</svg>