<svg xmlns="http://www.w3.org/2000/svg" xmlns:xlink="http://www.w3.org/1999/xlink" width="24" height="24" viewBox="0 0 24 24">
    <path d="M11.034375,6.07113387 L8.478125,8.41091016 C7.565625,9.24810648 7.5,10.6694659 8.340625,11.5878828 C9.16875,12.4906803 10.4894735,12.4811041 11.5087128,11.7157567 L12,11.270612 C12.4463492,10.9010741 12.4634254,10.8940114 13.0077246,11.3652928 L17.1324455,15.0342374 C17.6080336,15.4845822 17.5077511,15.9825019 17.0679169,16.4290745 C16.8684632,16.6315839 16.2712268,16.8897083 15.8808915,16.6562255 L15.3641251,16.2274864 C15.3779592,16.5251112 15.1364645,16.9208272 14.6396411,17.4146344 C14.1502364,17.9010679 13.2002309,18.146291 12.6128533,17.606739 L12,17.0901945 C11.7673421,17.3811426 11.4477482,17.6140326 11.0412186,17.7888646 C10.4856004,18.0278134 9.92598444,18.0278134 9.01325603,17.2492605 L6.571875,15.0647466 L2,15.0647466 L2,8.07485702 L5,8.07485702 L8.340625,6.07113387 L11.034375,6.07113387 Z M15.584375,6.07113387 L16.290625,6.36477736 L17.996875,8.07040867 L22,8.07040867 L22,14.3975013 L17.996875,14.3975013 L13.2,10.1821427 L14.015625,9.43553849 C14.21875,9.24810648 14.234375,8.93259593 14.046875,8.72954458 C13.8625,8.52649323 13.54375,8.51399777 13.340625,8.69830591 L10.84375,10.9849765 C10.840625,10.9881003 10.834375,10.9881003 10.83125,10.9912242 C10.309375,11.4566804 9.475,11.3410973 9.078125,10.9068798 C8.634375,10.4226804 8.625,9.64483757 9.14375,9.15751434 C9.146875,9.15439047 9.15,9.14814274 9.153125,9.14501887 L12.225,6.33353869 C12.409375,6.16484988 12.65,6.07113387 12.9,6.07113387 L15.584375,6.07113387 Z"></path>
</svg>