<svg width="24" height="24" viewBox="0 0 24 24" fill="none" xmlns="http://www.w3.org/2000/svg">
<path fill-rule="evenodd" clip-rule="evenodd" d="M20.4344 7.94603C21.8959 7.67999 23 6.46215 23 5C23 3.34315 21.5822 2 19.8333 2C18.0844 2 16.6667 3.34315 16.6667 5C16.6667 6.18298 17.3894 7.20604 18.4394 7.69448L18.103 12.0683C17.5674 12.1784 17.0824 12.4169 16.6856 12.748L9.31956 9.28164C9.32867 9.18892 9.33333 9.09497 9.33333 9C9.33333 7.34315 7.91557 6 6.16667 6C4.41777 6 3 7.34315 3 9C3 10.3062 3.88119 11.4175 5.11111 11.8293V16.1707C3.88119 16.5825 3 17.6938 3 19C3 20.6569 4.41777 22 6.16667 22C7.91557 22 9.33333 20.6569 9.33333 19C9.33333 17.6548 8.39873 16.5163 7.11111 16.1357V11.8643C7.62575 11.7122 8.084 11.439 8.44872 11.0799L15.6598 14.4733C15.6278 14.6443 15.6111 14.8203 15.6111 15C15.6111 16.6569 17.0289 18 18.7778 18C20.5267 18 21.9444 16.6569 21.9444 15C21.9444 13.7908 21.1893 12.7487 20.1015 12.2739L20.4344 7.94603ZM19.8333 7C21.0816 7 22 6.05431 22 5C22 3.94569 21.0816 3 19.8333 3C18.5851 3 17.6667 3.94569 17.6667 5C17.6667 6.05431 18.5851 7 19.8333 7ZM6.16667 11C7.41492 11 8.33333 10.0543 8.33333 9C8.33333 7.94569 7.41492 7 6.16667 7C4.91842 7 4 7.94569 4 9C4 10.0543 4.91842 11 6.16667 11Z" fill="black"/>
</svg>
