<svg xmlns="http://www.w3.org/2000/svg" xmlns:xlink="http://www.w3.org/1999/xlink" width="24" height="24" viewBox="0 0 24 24">
    <path d="M12,2 C17.52,2 22,6.48 22,12 C22,17.52 17.52,22 12,22 C6.48,22 2,17.52 2,12 C2,6.48 6.48,2 12,2 Z M11.03,16.921 L7.78100268,18.7971732 C8.74624103,19.3978581 9.84856876,19.7987001 11.0299871,19.9417006 L11.03,16.921 Z M16.035,14.03 L12.97,15.8 L12.9705047,19.941641 C14.0775974,19.8075675 15.1152284,19.4470733 16.0356684,18.9078876 L16.035,14.03 Z M4.26401066,14.0446302 C4.59441936,15.2966904 5.2209818,16.4288868 6.06412376,17.3616452 L6.065,13.004 L4.26401066,14.0446302 Z M19.994,11.744 L17.975,12.91 L17.9764964,17.3163651 C19.2350444,15.9027311 20,14.040155 20,12 L19.994,11.744 Z M11.03,10.138 L8.005,11.884 L8.005,16.427 L11.03,14.68 L11.03,10.138 Z M16.035,7.248 L12.97,9.017 L12.97,13.56 L16.035,11.79 L16.035,7.248 Z M4.00011847,11.9560343 L6.065,10.764 L6.06445208,6.63799159 C4.79069021,8.04696771 4.01114098,9.91108663 4.00011847,11.9560343 Z M17.9762901,6.68340327 L17.975,10.67 L19.6628465,9.69611938 C19.3234115,8.56673635 18.740942,7.54221356 17.9762901,6.68340327 Z M11.0306788,4.05821575 C9.93944719,4.1902035 8.91567874,4.54216744 8.00507429,5.06840675 L8.005,9.644 L11.03,7.898 L11.0306788,4.05821575 Z M12.9707673,4.05839079 L12.97,6.778 L15.9630971,5.05011034 C15.0608939,4.53423819 14.0487622,4.18897663 12.9707673,4.05839079 Z" fill="currentColor"/>
</svg>


