<svg width="24" height="24" viewBox="0 0 24 24" fill="none" xmlns="http://www.w3.org/2000/svg">
<path fill-rule="evenodd" clip-rule="evenodd" d="M12 2C6.48 2 2 6.48 2 12C2 17.52 6.48 22 12 22C17.52 22 22 17.52 22 12C22 6.48 17.52 2 12 2ZM12.97 6.77782L15.9628 5.04993C15.0604 4.53404 14.0482 4.1888 12.97 4.0583V6.77782ZM11.03 7.89788V4.0583C9.93903 4.19035 8.9155 4.54227 8.00509 5.0684V9.64431L11.03 7.89788ZM6.06509 10.7644V6.63728C4.79084 8.04647 4.011 9.91108 4.00012 11.9566L6.06509 10.7644ZM6.06509 13.0045V17.3627C5.22141 16.4297 4.59446 15.297 4.26394 14.0444L6.06509 13.0045ZM8.00509 16.4273V11.8844L11.03 10.138V14.6809L8.00509 16.4273ZM12.97 13.5609L12.97 9.01793L16.0354 7.24814V11.7911L12.97 13.5609ZM17.9754 10.671V6.68239C18.7406 7.54154 19.3235 8.56661 19.663 9.69665L17.9754 10.671ZM12.97 15.801L16.0354 14.0312V18.9081C15.1149 19.4472 14.0772 19.8077 12.97 19.9417V15.801ZM17.9754 12.9111V17.3176C19.2346 15.9038 20 14.0408 20 12C20 11.9145 19.9987 11.8294 19.996 11.7445L17.9754 12.9111ZM11.03 16.921L7.78073 18.797C8.74604 19.3978 9.84847 19.7987 11.03 19.9417V16.921Z" fill="black"/>
</svg>
