<svg width="24" height="24" viewBox="0 0 24 24" fill="none" xmlns="http://www.w3.org/2000/svg">
<path fill-rule="evenodd" clip-rule="evenodd" d="M23 3V2.5C23 1.12 21.88 0 20.5 0C19.12 0 18 1.12 18 2.5V3C17.45 3 17 3.45 17 4V8C17 8.55 17.45 9 18 9H23C23.55 9 24 8.55 24 8V4C24 3.45 23.55 3 23 3ZM22.2 3H18.8V2.5C18.8 1.56 19.56 0.8 20.5 0.8C21.44 0.8 22.2 1.56 22.2 2.5V3ZM19.92 11C19.96 11.33 20 11.66 20 12C20 14.08 19.2 15.97 17.9 17.39C17.64 16.58 16.9 16 16 16H15V13C15 12.45 14.55 12 14 12H8V10H10C10.55 10 11 9.55 11 9V7H13C14.1 7 15 6.1 15 5V2.46C14.05 2.16 13.05 2 12 2C6.48 2 2 6.48 2 12C2 17.52 6.48 22 12 22C17.52 22 22 17.52 22 12C22 11.66 21.98 11.33 21.95 11H19.92ZM11 19.93C7.05 19.44 4 16.08 4 12C4 11.38 4.08 10.79 4.21 10.21L9 15V16C9 17.1 9.9 18 11 18V19.93Z" fill="black"/>
</svg>
