<svg width="24" height="24" viewBox="0 0 24 24" fill="none" xmlns="http://www.w3.org/2000/svg">
<path d="M17 5L21 8L17 11L17.01 9H15C14.17 9 13.343 10.361 12.308 11.961C13.345 13.595 14.156 15 15 15H17.01L17 13L21 16L17 19L17.01 17H15C13.435 17 12.306 15.407 11.165 13.642C9.86301 15.406 8.23201 17 6.00001 17H4.06701V15H6.00001C7.73701 15 8.97901 13.617 10.09 12.001C8.98001 10.384 7.73701 9 6.00001 9H4.06601V7H6.00001C8.28301 7 9.91301 8.565 11.195 10.311C12.326 8.565 13.45 7 15 7H17.01L17 5Z" fill="black"/>
</svg>
