<svg width="24" height="24" viewBox="0 0 24 24" fill="none" xmlns="http://www.w3.org/2000/svg">
<path fill-rule="evenodd" clip-rule="evenodd" d="M18.6518 13.5059C18.7879 13.276 18.9972 13.0895 19.4638 12.636C19.9263 12.1868 20.1069 11.5323 19.9375 10.9184C19.7679 10.3027 19.6829 10.0381 19.6828 9.77339C19.6826 9.50846 19.7674 9.24347 19.9375 8.62631C20.1069 8.013 19.9263 7.35791 19.4638 6.90872C18.9971 6.45541 18.7875 6.26772 18.6513 6.03673C18.5165 5.80807 18.4536 5.537 18.2844 4.92382C18.1151 4.31057 17.622 3.8309 16.9901 3.66684C16.3532 3.50105 16.0749 3.44011 15.8378 3.30613C15.6031 3.17348 15.4088 2.96925 14.9471 2.52079C14.4846 2.07154 13.8108 1.89611 13.1796 2.06076C12.5443 2.2261 12.2716 2.30859 11.9989 2.30843C11.7264 2.30827 11.4541 2.22564 10.8204 2.06076C10.1891 1.89611 9.51541 2.07212 9.0529 2.52079C8.58791 2.97268 8.39245 3.17709 8.15654 3.30933C7.91968 3.44211 7.64204 3.50213 7.00988 3.66684C6.37801 3.83149 5.88492 4.31057 5.71555 4.92382C5.54564 5.53994 5.48296 5.81066 5.34811 6.03871C5.21214 6.26865 5.00281 6.45521 4.53621 6.90872C4.0737 7.35791 3.89311 8.01241 4.06247 8.62631C4.23304 9.24498 4.31772 9.51019 4.31723 9.77524C4.31675 10.0395 4.23159 10.3036 4.06247 10.9178C3.89311 11.5311 4.0737 12.1862 4.53621 12.6354C5.00248 13.0883 5.2121 13.276 5.34837 13.507C5.48334 13.7357 5.54637 14.0069 5.71555 14.6203C5.88492 15.2336 6.37801 15.7132 7.00988 15.8773C7.9042 16.1099 8 16.5 8 17L7.99984 22L11.9997 19.7882L15.9996 22L16 17C15.9996 16.5025 16.0945 16.1105 16.9895 15.8779C17.6214 15.7132 18.1145 15.2342 18.2838 14.6208C18.4541 14.0047 18.5169 13.734 18.6518 13.5059ZM9 10C9 8.34298 10.3434 7 12 7C13.6565 7 15 8.34298 15 10C15 11.657 13.6565 13 12 13C10.3434 13 9 11.657 9 10Z" fill="black"/>
</svg>
