<svg width="24" height="24" viewBox="0 0 24 24" fill="none" xmlns="http://www.w3.org/2000/svg">
<g id="Run">
<g id="structure-icon-run">
<path id="structure-icon-run-ring" fill-rule="evenodd" clip-rule="evenodd" d="M12 2C6.47719 2 2 6.4771 2 12C2 17.5228 6.47719 22 12 22C17.5228 22 22 17.5228 22 12C22 6.4771 17.5228 2 12 2ZM16.5287 15.935C15.3869 17.2473 13.7356 18 11.9954 18C10.5511 18 9.15439 17.4776 8.06142 16.5278L8.06064 16.5288C5.56408 14.3576 5.29864 10.5605 7.46908 8.06408C8.45088 6.93405 9.76776 6.26039 11.1456 6.06343L11.1453 6.06145C12.8566 5.81125 14.6285 6.33371 15.9357 7.47166C17.2471 8.61031 18 10.2611 18 12.0007C18 13.4454 17.4774 14.8432 16.5287 15.935ZM11.7211 8.00994C11.8163 8.00284 11.9115 8 12.0061 8C12.9704 8 13.8913 8.34303 14.6254 8.98081C16.2911 10.4275 16.4674 12.9587 15.0205 14.6234C14.3199 15.4302 13.3456 15.916 12.2789 15.9898C11.2187 16.0651 10.1805 15.72 9.37462 15.0197C7.70963 13.5709 7.53197 11.0397 8.97951 9.37568C9.6809 8.56959 10.6545 8.08451 11.7211 8.00994Z" fill="black"/>
<circle id="structure-icon-run-progress" opacity="0.66" cx="12" cy="12" r="5" stroke="black" stroke-width="2"/>
</g>
</g>
</svg>
