<svg width="24" height="24" viewBox="0 0 24 24" fill="none" xmlns="http://www.w3.org/2000/svg">
<path fill-rule="evenodd" clip-rule="evenodd" d="M3.5 4C2.75 4 2 4.75 2 5.5V7.5C2 8.25 2.75 9 3.5 9H20.475C21.25 9 22 8.25 22 7.5V5.5C22 4.75 21.25 4 20.475 4H3.5ZM19.5 7.75C20.1904 7.75 20.75 7.19036 20.75 6.5C20.75 5.80964 20.1904 5.25 19.5 5.25C18.8096 5.25 18.25 5.80964 18.25 6.5C18.25 7.19036 18.8096 7.75 19.5 7.75Z" fill="black"/>
<path fill-rule="evenodd" clip-rule="evenodd" d="M3.5 10C2.75 10 2 10.75 2 11.5V13.5C2 14.25 2.75 15 3.5 15H20.475C21.25 15 22 14.25 22 13.5V11.5C22 10.75 21.25 10 20.475 10H3.5ZM19.5 13.75C20.1904 13.75 20.75 13.1904 20.75 12.5C20.75 11.8096 20.1904 11.25 19.5 11.25C18.8096 11.25 18.25 11.8096 18.25 12.5C18.25 13.1904 18.8096 13.75 19.5 13.75Z" fill="black"/>
<path fill-rule="evenodd" clip-rule="evenodd" d="M3.5 16C2.75 16 2 16.75 2.02501 17.5L2 19.5C2 20.25 2.75 21 3.5 21H20.5C21.25 21 22 20.25 22 19.5L22.025 17.5C22.025 16.75 21.25 16 20.5 16H3.5ZM19.525 19.75C20.2154 19.75 20.775 19.1904 20.775 18.5C20.775 17.8096 20.2154 17.25 19.525 17.25C18.8347 17.25 18.275 17.8096 18.275 18.5C18.275 19.1904 18.8347 19.75 19.525 19.75Z" fill="black"/>
</svg>
