<svg width="24" height="24" viewBox="0 0 24 24" fill="none" xmlns="http://www.w3.org/2000/svg">
<path fill-rule="evenodd" clip-rule="evenodd" d="M13.7143 9.14286L17.2857 12.7143L13.7143 16.2857L13 14.8857L15.1429 12.7143L13 10.5714L13.7143 9.14286ZM10.1429 10.5429L8 12.7143L10.1429 14.8571L9.42857 16.2857L5.85714 12.7143L9.42857 9.14286L10.1429 10.5429ZM18.7143 20.5714H4.42857V3.42857H14.4286L18.7143 7.71429V20.5714ZM15.1429 2H4.42857C3.64286 2 3 2.64286 3 3.42857V20.5714C3 21.3571 3.64286 22 4.42857 22H18.7143C19.5 22 20.1429 21.3571 20.1429 20.5714V7L15.1429 2Z" fill="black"/>
</svg>
