<svg width="24" height="24" viewBox="0 0 24 24" fill="none" xmlns="http://www.w3.org/2000/svg">
<path fill-rule="evenodd" clip-rule="evenodd" d="M2 12C2 6.47715 6.47715 2 12 2C17.5204 2.00597 21.994 6.47963 22 12C22 17.5228 17.5228 22 12 22C6.47715 22 2 17.5228 2 12ZM19.8308 9.41155C19.8698 9.3562 19.8794 9.2854 19.8567 9.22166C19.0125 6.85189 17.148 4.98786 14.7783 4.14333C14.7145 4.12095 14.6437 4.13085 14.5885 4.1699C14.5332 4.20895 14.5002 4.27233 14.5 4.34V7.55333C14.5003 7.62713 14.5392 7.69541 14.6025 7.73333C15.2819 8.14939 15.8531 8.72056 16.2692 9.4C16.3074 9.46185 16.3748 9.49965 16.4475 9.5H19.6608C19.7285 9.49987 19.7919 9.46689 19.8308 9.41155ZM12 15.3333C10.159 15.3333 8.66666 13.841 8.66666 12C8.66666 10.1591 10.159 8.66667 12 8.66667C13.8409 8.66667 15.3333 10.1591 15.3333 12C15.3333 12.8841 14.9821 13.7319 14.357 14.357C13.7319 14.9821 12.884 15.3333 12 15.3333ZM9.41153 4.1699C9.35626 4.13085 9.28552 4.12095 9.22166 4.14333C6.85018 4.98812 4.98445 6.85477 4.14082 9.22666C4.11761 9.29038 4.12727 9.36145 4.16666 9.41666C4.20731 9.47069 4.27157 9.50173 4.33916 9.5H7.55249C7.62643 9.50016 7.69504 9.46158 7.73332 9.39833C8.14939 8.71889 8.72055 8.14773 9.39999 7.73166C9.46209 7.69367 9.49996 7.62613 9.49999 7.55333V4.34C9.49975 4.27233 9.46679 4.20895 9.41153 4.1699ZM4.14333 14.7783C4.12018 14.7146 4.12963 14.6436 4.16866 14.5881C4.20768 14.5326 4.27134 14.4997 4.33916 14.5H7.55249C7.62529 14.5 7.69283 14.5379 7.73083 14.6C8.14689 15.2794 8.71805 15.8506 9.39749 16.2667C9.45947 16.3048 9.4973 16.3722 9.49749 16.445V19.6583C9.49737 19.726 9.46438 19.7894 9.40904 19.8283C9.3537 19.8673 9.28289 19.8769 9.21916 19.8542C6.85119 19.0097 4.98777 17.1463 4.14333 14.7783ZM14.5885 19.8317C14.6438 19.8706 14.7146 19.8802 14.7783 19.8575C17.1452 19.012 19.0073 17.1484 19.8508 14.7808C19.8741 14.7174 19.8644 14.6466 19.825 14.5917C19.7868 14.5372 19.7248 14.5044 19.6583 14.5033H16.445C16.3722 14.5034 16.3047 14.5412 16.2667 14.6033C15.8506 15.2828 15.2794 15.8539 14.6 16.27C14.5379 16.308 14.5 16.3755 14.5 16.4483V19.6617C14.5001 19.7293 14.5331 19.7927 14.5885 19.8317Z" fill="black"/>
</svg>
