<svg viewBox="0 0 24 24" xmlns="http://www.w3.org/2000/svg" xmlns:xlink="http://www.w3.org/1999/xlink"><path d="M12 2C6.477 2 2 6.477 2 12s4.477 10 10 10 10-4.477 10-10c-.006-5.52-4.48-9.994-10-10zm7.857 7.222a.208.208 0 01-.196.278h-3.213a.21.21 0 01-.179-.1 5.042 5.042 0 00-1.666-1.667.21.21 0 01-.103-.18V4.34a.21.21 0 01.278-.197 8.376 8.376 0 015.079 5.08v-.001zM12 15.333a3.333 3.333 0 110-6.666 3.333 3.333 0 010 6.666zM9.222 4.143a.21.21 0 01.278.197v3.213a.21.21 0 01-.1.179c-.68.416-1.25.987-1.667 1.666a.21.21 0 01-.18.102H4.338a.21.21 0 01-.172-.083.206.206 0 01-.026-.19 8.376 8.376 0 015.08-5.084zM4.143 14.778a.207.207 0 01.196-.278h3.213a.21.21 0 01.179.1c.416.68.987 1.25 1.667 1.667a.21.21 0 01.1.178v3.213a.208.208 0 01-.279.196 8.376 8.376 0 01-5.076-5.076zm10.635 5.08a.208.208 0 01-.278-.196v-3.214a.21.21 0 01.1-.178 5.042 5.042 0 001.667-1.667.21.21 0 01.178-.1h3.213a.208.208 0 01.193.278 8.376 8.376 0 01-5.073 5.077z" /></svg>