<svg width="24" height="24" viewBox="0 0 24 24" fill="none" xmlns="http://www.w3.org/2000/svg">
<path d="M8.48607 9.90247C9.2296 9.90247 9.83235 9.29972 9.83235 8.55619C9.83235 7.81266 9.2296 7.20991 8.48607 7.20991C7.74254 7.20991 7.13979 7.81266 7.13979 8.55619C7.13979 9.29972 7.74254 9.90247 8.48607 9.90247Z" fill="black"/>
<path fill-rule="evenodd" clip-rule="evenodd" d="M2.52577 12.2723C2.12451 11.871 1.93662 11.3037 2.01907 10.7422L2.942 4.45719C3.05715 3.673 3.673 3.05715 4.45719 2.942L10.7422 2.01907C11.3037 1.93662 11.871 2.12451 12.2723 2.52577L21.4742 11.7277C22.1753 12.4287 22.1753 13.5653 21.4742 14.2663L14.2663 21.4742C13.5653 22.1753 12.4287 22.1753 11.7277 21.4742L2.52577 12.2723ZM11.003 3.79506L20.205 12.997L12.997 20.205L3.79506 11.003L4.71799 4.71799L11.003 3.79506Z" fill="black"/>
</svg>
