<svg width="24" height="24" viewBox="0 0 24 24" fill="none" xmlns="http://www.w3.org/2000/svg">
<path d="M10.5 3C13.7558 3 16.5271 5.07459 17.564 7.97397C19.6211 9.1934 21 11.4357 21 14C21 17.866 17.866 21 14 21C11.5032 21 9.31174 19.6928 8.07262 17.7255L7.97397 17.564C5.07459 16.5271 3 13.7558 3 10.5C3 6.35786 6.35786 3 10.5 3ZM17.9851 10.9797C17.7456 14.7405 14.7405 17.7456 10.9835 17.9847C11.8188 18.622 12.8653 19 14 19C16.7614 19 19 16.7614 19 14C19 12.8653 18.622 11.8188 17.9851 10.9797ZM10.5 5C7.46243 5 5 7.46243 5 10.5C5 13.5376 7.46243 16 10.5 16C13.5376 16 16 13.5376 16 10.5C16 7.46243 13.5376 5 10.5 5ZM10.5 8C11.8807 8 13 9.11929 13 10.5C13 11.8807 11.8807 13 10.5 13C9.11929 13 8 11.8807 8 10.5C8 9.11929 9.11929 8 10.5 8ZM10.5 9C9.67157 9 9 9.67157 9 10.5C9 11.3284 9.67157 12 10.5 12C11.3284 12 12 11.3284 12 10.5C12 9.67157 11.3284 9 10.5 9Z" fill="black"/>
</svg>
