<svg width="24" height="24" viewBox="0 0 24 24" fill="none" xmlns="http://www.w3.org/2000/svg">
<path fill-rule="evenodd" clip-rule="evenodd" d="M12.2776 9.31337C11.4705 9.42272 10.6756 9.04629 10.2679 8.36163C9.71629 7.43355 10.0438 6.24734 10.9998 5.71114C11.9564 5.17592 13.179 5.49372 13.7317 6.42124C14.1391 7.10604 14.0778 7.96213 13.5768 8.58573L15.9306 12.5412C17.9515 11.81 20.2831 12.5786 21.3972 14.451C22.6388 16.5376 21.9009 19.2102 19.7497 20.4148C18.6871 21.0113 17.419 21.1593 16.2409 20.8243L16.714 19.4419C17.4849 19.6462 18.308 19.5426 18.9997 19.1544C20.4339 18.3502 20.9254 16.5709 20.098 15.1786C19.6338 14.3993 18.8242 13.872 17.9049 13.7504C16.9856 13.6287 16.0601 13.9264 15.3977 14.5567L12.2776 9.31337ZM15.6454 15.9049C15.9515 15.1722 16.6848 14.6926 17.4997 14.6922C18.6041 14.6927 19.4992 15.5611 19.4997 16.6326C19.4992 17.704 18.6041 18.5725 17.4997 18.573C16.6848 18.5726 15.9515 18.093 15.6454 17.3602H10.9377C10.5806 19.4239 8.72808 20.9985 6.49992 20.9985C4.0162 20.9985 2 19.0423 2 16.6326C2 15.3937 2.53339 14.2746 3.38866 13.4795L4.38586 14.568C3.81809 15.1137 3.49908 15.8572 3.49997 16.6326C3.50074 18.2397 4.84341 19.5424 6.49992 19.5432C7.42768 19.5428 8.30312 19.1262 8.87134 18.4147C9.43955 17.7031 9.63665 16.7766 9.40525 15.9049H15.6454ZM8.07689 15.4144C8.57796 16.038 8.63941 16.894 8.23226 17.5789C7.67945 18.5063 6.45685 18.8239 5.5004 18.2886C4.54407 17.7527 4.21608 16.5664 4.76758 15.6381C5.17542 14.9534 5.97046 14.5769 6.77774 14.6863L9.1316 10.7309C7.46836 9.39887 6.98878 7.05484 8.10286 5.18285C9.34449 3.09621 12.0991 2.38026 14.2498 3.58491C15.3136 4.17956 16.0798 5.17112 16.3699 6.32854L14.8996 6.62194C14.6963 5.8721 14.1923 5.23235 13.4998 4.84535C12.0649 4.04252 10.231 4.51922 9.402 5.91049C8.9383 6.69023 8.87238 7.63421 9.22344 8.4675C9.57451 9.3008 10.3031 9.92971 11.197 10.1711L8.07689 15.4144Z" fill="black"/>
</svg>
